<?xml version="1.0" encoding="utf-8"?>
<!-- Generator: Adobe Illustrator 16.0.3, SVG Export Plug-In . SVG Version: 6.00 Build 0)  -->
<!DOCTYPE svg PUBLIC "-//W3C//DTD SVG 1.1//EN" "http://www.w3.org/Graphics/SVG/1.1/DTD/svg11.dtd">
<svg version="1.1" id="Layer_1" xmlns="http://www.w3.org/2000/svg" xmlns:xlink="http://www.w3.org/1999/xlink" x="0px" y="0px"
	 width="512px" height="512px" viewBox="0 0 512 512" style="enable-background:new 0 0 512 512;" xml:space="preserve">
<style type="text/css">
<![CDATA[
	.st0{fill:#14B6B9;}
	.st1{fill:#4B7BB2;}
	.st2{fill:#1E4384;}
	.st3{fill:#ED488B;}
	.st4{fill:#EF4754;}
	.st5{fill:#EF4823;}
	.st6{fill:#8A4581;}
	.st7{fill:#BCBCBC;}
	.st8{fill:#F26322;}
	.st9{fill:#F6851F;}
	.st10{fill:#283D5B;}
	.st11{fill:#C56528;}
	.st12{fill:#2B8C5E;}
	.st13{fill:#FCBF95;}
	.st14{fill:#FEBF10;}
	.st15{fill:none;}
	.st16{fill:#CAD7D6;}
	.st17{fill:#CBDB2D;}
	.st18{fill:#373837;}
	.st19{fill:#D03827;}
	.st20{fill:#3AB37C;}
	.st21{fill:#D6E5E5;}
	.st22{fill:#71C598;}
]]>
</style>
<g>
	<g>
		<g>
			<path class="st19" d="M463.788,159.975c-16.125-46.552-46.66-87.148-91.269-109.607c-50.948-25.65-110.953-28.072-166.415-19.262
				c-49.779,7.906-102.279,25.918-139.578,61.098c-19.579,18.467-34.738,40.916-42.662,66.768
				c-7.962,25.975-10.365,53.114-12.104,80.102c-0.072,1.145-0.425,2.039-0.953,2.711c0.031,0.247,0.051,0.502,0.051,0.772
				c0,52.927-1.062,108.335,30.075,153.938c25.321,37.082,64.481,61.467,107.198,73.711c88,25.225,194.161,9.605,264.924-50.809
				C487.163,356.125,493.972,247.112,463.788,159.975z M407.457,314.277c-0.828,7.74-2.034,15.467-4.032,22.999
				c-1.396,5.261-2.197,10.506-8.846,10.63c-0.765,0.014-1.452-0.107-2.07-0.325c-0.798,1.088-2.094,1.825-3.928,1.825
				c-20.788,0-41.602-0.161-62.415-0.172c-3.248,1.72-7.991,0.503-7.991-4.158v-2.231c0-0.06,0.007-0.117,0.009-0.176
				c0.044-12.539,0.4-25.125-0.031-37.646c-0.587-17.114-5.801-33.552-6.02-50.627H297.71c0.245,9.632,1.147,19.222,1.881,28.829
				c0.696,9.125,0.71,18.248,1.23,27.372c0.391,6.855,0.961,13.738,0.787,20.608c-0.14,5.407-0.08,11.989-3.814,16.347
				c-0.358,0.417-0.738,0.75-1.133,1.023v0.774c-0.647,0.006-1.295,0.02-1.942,0.026c-0.49,0.083-0.984,0.086-1.467,0.02
				c-17.802,0.207-35.597,0.64-53.367,1.526c-12.234,0.61-24.452,1.364-36.616,2.819c-0.373,0.086-0.769,0.133-1.185,0.137
				c-0.972,0.12-1.944,0.242-2.918,0.363v-1.107c-4.697-2.731-5.302-12.288-6.031-16.503c-1.942-11.237-3.308-22.579-4.594-33.906
				c-2.074-18.261-4.763-36.94-5.271-55.397c-6.376,0.677-12.823,0.305-19.294,0.143c-0.115,16.691,7.004,32.521,8.825,49
				c2.053,18.545,3.297,37.368,3.352,56.027c0.005,1.311-0.371,2.407-0.984,3.28v0.613c-0.172,0.004-0.343,0.002-0.516,0.005
				c-2.347,2.453-6.806,2.525-8.644-0.168c-22.852-1.149-45.471-5.221-68.414-5.322c-3.016-0.013-4.899-2.027-5.518-4.325
				c-0.013-0.01-0.025-0.017-0.037-0.027c-3.499-2.887-3.949-8.404-4.174-12.597c-0.322-6.034-0.109-12.086,0.174-18.117
				c0.228-4.863,1.103-10.133,0.646-14.993c-0.921-9.84-2.255-19.636-3.2-29.474c-0.992-10.329-1.149-20.582-1.396-30.943
				c-0.251-10.55-0.841-21.125-0.479-31.679c0.256-7.436,0.857-14.767,1.83-22.136c0.431-3.256,2.454-12.165-0.996-14.591
				c0.24-3.542,0.519-7.079,0.87-10.606c1.027-0.29,2.193-0.219,3.423,0.388c0.581-0.228,1.248-0.361,2.012-0.361h301.429
				c2.886,0,4.736,1.833,5.435,4c1.195,0.784,2.022,2.123,2.029,4.062c0.108,32.419,5.854,64.457,8.047,96.741
				C408.773,282.218,409.163,298.333,407.457,314.277z"/>
		</g>
	</g>
	<g>
		<g>
			<path class="st21" d="M395.875,256.542c-2.531-28.014-6.883-55.957-7.179-84.127H96.552c1.651,7.603-0.743,16.913-1.333,24.218
				c-0.831,10.35-0.801,20.698-0.493,31.071c0.309,10.439,0.131,20.934,0.801,31.355c1.078,16.805,4.621,33.493,3.759,50.343
				c-0.313,6.139-0.666,12.293-0.605,18.442c0.026,2.672,0.055,5.371,0.392,8.026c0.097,0.765,0.15,1.55,0.391,2.287
				c0.055,0.166,0.104,0.299,0.149,0.412c0.475,0.447,0.834,0.926,1.095,1.421c11.244,0.221,22.457,1.137,33.647,2.263
				c10.157,1.021,20.511,2.605,30.76,3.056c-0.226-16.56-1.072-33.505-3.512-49.746c-2.695-17.939-9.455-34.779-8.333-53.187
				c0.122-1.996,1.07-3.252,2.359-3.872c0.774-1.23,2.134-2.08,4.117-2.064c9.44,0.073,19.416,1.566,28.604-1.206
				c5.861-1.769,9.373,5.735,5.842,9.132c0.333,17.393,2.829,35.011,4.73,52.243c1.249,11.317,2.561,22.641,4.318,33.892
				c0.544,3.485,1.278,7.961,1.888,10.547c0.106,0.456,0.22,0.913,0.334,1.369c11.156-1.243,22.366-1.93,33.577-2.466
				c16.988-0.812,33.993-1.229,51.006-1.448c0.211-1.186,0.385-2.375,0.473-3.577c0.214-2.926,0.172-5.883,0.081-8.813
				c-0.175-5.752-0.67-11.486-0.873-17.235c-0.678-19.172-2.943-38.349-3.048-57.529c-0.006-1.005,0.218-1.88,0.595-2.629
				c-0.13-2.677,1.427-5.294,4.889-5.294h25.5c4.683,0,6.641,4.825,5.362,8.075c-0.907,18.992,6.123,37.444,6.123,56.451v30.345
				c19.535,0.015,39.069,0.14,58.588,0.14c0.772,0,1.466,0.138,2.088,0.372c0.53-0.722,1.28-1.29,2.253-1.604
				c0.187-0.675,0.377-1.349,0.553-2.027c0.404-1.608,0.809-3.216,1.156-4.838c0.699-3.258,1.338-6.531,1.821-9.829
				c0.993-6.767,1.667-13.581,1.884-20.419C397.947,285.554,397.182,271.02,395.875,256.542z"/>
		</g>
	</g>
	<g>
		<g>
			<path d="M477.456,166.911c-14.171-46.857-40.942-88.285-82.014-115.738c-46.358-30.985-105.274-38.447-159.783-34.447
				C183.96,20.52,131.03,34.624,87.063,62.704c-21.602,13.795-40.879,31.898-54.967,53.381
				c-14.859,22.66-22.511,48.775-26.58,75.363C3.206,206.533,2.077,221.781,1.098,237c-0.062,0.949,0.095,1.805,0.399,2.563
				c-0.889,0.938-1.473,2.218-1.473,3.828c0,30.126-0.645,60.399,4.644,90.183c4.823,27.145,15.229,52.928,31.632,75.148
				c29.15,39.498,73.501,63.312,120.389,74.99c88.939,22.154,194.244,3.654,264.5-57.08
				C495.168,362.68,504.347,255.846,477.456,166.911z M413.056,419.397c-70.763,60.414-176.924,76.033-264.924,50.809
				c-42.717-12.244-81.877-36.629-107.198-73.711C9.796,350.891,10.858,295.483,10.858,242.556c0-0.271-0.02-0.525-0.051-0.772
				c0.528-0.672,0.881-1.566,0.953-2.711c1.738-26.987,4.142-54.127,12.104-80.102c7.924-25.852,23.083-48.301,42.662-66.768
				c37.299-35.18,89.799-53.191,139.578-61.098c55.462-8.811,115.467-6.389,166.415,19.262
				c44.608,22.459,75.144,63.056,91.269,109.607C493.972,247.112,487.163,356.125,413.056,419.397z"/>
		</g>
	</g>
	<g>
		<g>
			<path d="M407.688,266.248c-2.193-32.284-7.938-64.322-8.047-96.741c-0.007-1.939-0.834-3.278-2.029-4.062
				c-0.698-2.167-2.549-4-5.435-4H90.749c-0.764,0-1.431,0.134-2.012,0.361c-1.229-0.606-2.396-0.678-3.423-0.388
				c-0.352,3.527-0.63,7.064-0.87,10.606c3.45,2.426,1.427,11.334,0.996,14.591c-0.973,7.369-1.574,14.7-1.83,22.136
				c-0.361,10.554,0.229,21.128,0.479,31.679c0.246,10.361,0.403,20.614,1.396,30.943c0.945,9.838,2.279,19.633,3.2,29.474
				c0.457,4.859-0.418,10.129-0.646,14.993c-0.283,6.031-0.496,12.083-0.174,18.117c0.225,4.193,0.675,9.71,4.174,12.597
				c0.012,0.01,0.024,0.018,0.037,0.027c0.618,2.298,2.502,4.312,5.518,4.325c22.943,0.102,45.562,4.173,68.414,5.322
				c1.838,2.693,6.297,2.621,8.644,0.168c0.173-0.003,0.344-0.001,0.516-0.005v-0.613c0.613-0.873,0.989-1.97,0.984-3.28
				c-0.055-18.659-1.299-37.481-3.352-56.027c-1.821-16.478-8.94-32.309-8.825-49c6.471,0.163,12.918,0.534,19.294-0.143
				c0.509,18.457,3.197,37.137,5.271,55.397c1.286,11.328,2.651,22.669,4.594,33.906c0.729,4.215,1.334,13.772,6.031,16.503v1.107
				c0.974-0.122,1.946-0.243,2.918-0.363c0.416-0.004,0.812-0.051,1.185-0.137c12.164-1.455,24.382-2.209,36.616-2.819
				c17.771-0.886,35.565-1.32,53.367-1.526c0.482,0.066,0.977,0.062,1.467-0.02c0.647-0.007,1.295-0.02,1.942-0.026v-0.774
				c0.395-0.272,0.774-0.605,1.133-1.023c3.734-4.358,3.675-10.94,3.814-16.347c0.174-6.871-0.396-13.753-0.787-20.608
				c-0.521-9.124-0.534-18.247-1.23-27.372c-0.733-9.607-1.636-19.197-1.881-28.829h14.423c0.219,17.075,5.433,33.513,6.02,50.627
				c0.432,12.521,0.075,25.107,0.031,37.646c-0.002,0.059-0.009,0.116-0.009,0.176v2.231c0,4.662,4.743,5.878,7.991,4.158
				c20.813,0.012,41.627,0.172,62.415,0.172c1.834,0,3.13-0.737,3.928-1.825c0.618,0.218,1.306,0.339,2.07,0.325
				c6.648-0.124,7.449-5.369,8.846-10.63c1.998-7.532,3.204-15.259,4.032-22.999C409.163,298.333,408.773,282.218,407.688,266.248z
				 M397.488,300.092c-0.217,6.838-0.891,13.652-1.884,20.419c-0.483,3.298-1.122,6.571-1.821,9.829
				c-0.348,1.622-0.752,3.23-1.156,4.838c-0.176,0.678-0.366,1.352-0.553,2.027c-0.973,0.313-1.723,0.882-2.253,1.604
				c-0.622-0.234-1.315-0.372-2.088-0.372c-19.519,0-39.053-0.125-58.588-0.14v-30.345c0-19.006-7.03-37.458-6.123-56.451
				c1.278-3.25-0.68-8.075-5.362-8.075h-25.5c-3.462,0-5.019,2.617-4.889,5.294c-0.377,0.749-0.601,1.624-0.595,2.629
				c0.104,19.18,2.37,38.357,3.048,57.529c0.203,5.749,0.698,11.483,0.873,17.235c0.091,2.931,0.133,5.888-0.081,8.813
				c-0.088,1.202-0.262,2.392-0.473,3.577c-17.013,0.218-34.018,0.636-51.006,1.448c-11.211,0.536-22.421,1.223-33.577,2.466
				c-0.114-0.456-0.228-0.914-0.334-1.369c-0.609-2.585-1.344-7.062-1.888-10.547c-1.758-11.251-3.069-22.575-4.318-33.892
				c-1.901-17.231-4.397-34.85-4.73-52.243c3.531-3.397,0.02-10.901-5.842-9.132c-9.188,2.772-19.163,1.279-28.604,1.206
				c-1.983-0.016-3.343,0.833-4.117,2.064c-1.289,0.62-2.237,1.876-2.359,3.872c-1.122,18.407,5.638,35.248,8.333,53.187
				c2.439,16.241,3.286,33.186,3.512,49.746c-10.249-0.451-20.603-2.034-30.76-3.056c-11.19-1.126-22.403-2.042-33.647-2.263
				c-0.261-0.495-0.62-0.974-1.095-1.421c-0.046-0.113-0.095-0.247-0.149-0.412c-0.24-0.736-0.294-1.521-0.391-2.287
				c-0.337-2.655-0.365-5.354-0.392-8.026c-0.061-6.149,0.292-12.303,0.605-18.442c0.862-16.85-2.681-33.538-3.759-50.343
				c-0.67-10.421-0.492-20.916-0.801-31.355c-0.308-10.373-0.338-20.722,0.493-31.071c0.59-7.305,2.984-16.615,1.333-24.218h292.145
				c0.296,28.17,4.647,56.113,7.179,84.127C397.182,271.02,397.947,285.554,397.488,300.092z"/>
		</g>
	</g>
</g>
</svg>
