<?xml version="1.0" encoding="utf-8"?>
<!-- Generator: Adobe Illustrator 16.0.3, SVG Export Plug-In . SVG Version: 6.00 Build 0)  -->
<!DOCTYPE svg PUBLIC "-//W3C//DTD SVG 1.1//EN" "http://www.w3.org/Graphics/SVG/1.1/DTD/svg11.dtd">
<svg version="1.1" id="Layer_1" xmlns="http://www.w3.org/2000/svg" xmlns:xlink="http://www.w3.org/1999/xlink" x="0px" y="0px"
	 width="512px" height="512px" viewBox="0 0 512 512" style="enable-background:new 0 0 512 512;" xml:space="preserve">
<style type="text/css">
<![CDATA[
	.st0{fill:#14B6B9;}
	.st1{fill:#4B7BB2;}
	.st2{fill:#1E4384;}
	.st3{fill:#ED488B;}
	.st4{fill:#EF4754;}
	.st5{fill:#EF4823;}
	.st6{fill:#8A4581;}
	.st7{fill:#BCBCBC;}
	.st8{fill:#F26322;}
	.st9{fill:#F6851F;}
	.st10{fill:#283D5B;}
	.st11{fill:#C56528;}
	.st12{fill:#2B8C5E;}
	.st13{fill:#FCBF95;}
	.st14{fill:#FEBF10;}
	.st15{fill:none;}
	.st16{fill:#CAD7D6;}
	.st17{fill:#CBDB2D;}
	.st18{fill:#373837;}
	.st19{fill:#D03827;}
	.st20{fill:#3AB37C;}
	.st21{fill:#D6E5E5;}
	.st22{fill:#71C598;}
]]>
</style>
<g>
	<g>
		<g>
			<path class="st1" d="M367.747,269.708c-0.308-37.649-0.323-75.301-0.323-112.953c-40.325,0.084-80.644,0.774-120.962,1.469
				c-0.114,0.516-0.313,1.048-0.62,1.591c-0.036,0.063-0.066,0.112-0.091,0.149c-0.109,0.557-0.207,1.113-0.26,1.678
				c-0.129,1.369-0.136,2.748-0.119,4.125c0.048,3.919,0.256,7.834,0.53,11.744c0.567,8.085,1.465,16.155,1.889,24.249
				c1.382,26.375,1.587,52.644,1.606,79.046c34.996-0.045,69.842-5.544,104.811-4.523c0.837-0.85,1.944-1.406,3.278-1.407
				c3.255-0.002,6.944,0.264,10.312-0.302C367.784,272.952,367.76,271.33,367.747,269.708z"/>
		</g>
	</g>
	<g>
		<g>
			<path class="st16" d="M373.137,384.278c-0.12-18.57-1.566-37.168-1.906-55.753c-0.262-14.306-0.448-28.611-0.602-42.919
				c-2.058,0.204-4.146,0.249-6.199,0.248c-0.849,0.936-1.995,1.549-3.384,1.491c-18.812-0.775-37.568,0.725-56.307,2.213
				c-17.559,1.396-35.031,2.29-52.625,2.226v38.869c0,10.944-0.469,21.967,0.432,32.884c0.676,8.2,1.583,16.443,1.567,24.681
				c-0.002,1.242,0.006,2.552-0.035,3.868c5.642,0.067,11.286,0.161,16.934,0.278c22.876,0.475,45.919,0.037,68.763,1.164
				c6.837,0.336,13.768,0.865,20.6,0.168c4.403-0.449,11.591-1.16,12.849-6.391c0.082-0.34,0.192-0.651,0.315-0.947
				C373.29,385.76,373.142,385.072,373.137,384.278z"/>
		</g>
	</g>
	<g>
		<g>
			<path class="st18" d="M242.607,377.133c-0.479-6.584-1.464-13.246-1.464-19.854v-65.646c-36.536-0.684-73.037-2.75-109.586-2.788
				c-0.26,0-0.509-0.02-0.752-0.049c0.448,5.85,0.822,11.712,1.085,17.596c1.299,29.124,1.39,58.278,1.396,87.427
				c0,0.013,0.002,0.023,0.002,0.035v0.013c21.492,1.357,43.094-0.046,64.573-1.029c15.082-0.69,30.14-0.9,45.207-0.841
				c0.054-0.976,0.082-1.951,0.074-2.933C243.108,385.083,242.896,381.104,242.607,377.133z"/>
		</g>
	</g>
	<g>
		<g>
			<path class="st7" d="M476.251,175.917c-16.126-46.552-46.661-87.148-91.268-109.607c-50.95-25.65-110.954-28.072-166.417-19.262
				c-49.78,7.906-102.278,25.918-139.577,61.098c-19.579,18.467-34.739,40.916-42.662,66.768
				c-7.961,25.975-10.366,53.114-12.104,80.102c-0.074,1.145-0.426,2.039-0.955,2.711c0.031,0.247,0.052,0.502,0.052,0.772
				c0,52.927-1.063,108.335,30.075,153.938c25.321,37.082,64.48,61.467,107.198,73.711c88,25.225,194.16,9.605,264.923-50.809
				C499.625,372.067,506.435,263.053,476.251,175.917z M384.021,389.405c-3.796,15.773-23.179,15.978-36.223,15.437
				c-22.636-0.938-45.323-0.851-67.979-1.339c-9.918-0.214-19.83-0.406-29.739-0.5c-0.487,0.386-1.02,0.742-1.632,1.043
				c-2.383,1.17-4.37,0.443-5.596-1.085c-14.087-0.058-28.172,0.116-42.267,0.761c-23.282,1.066-46.616,2.485-69.897,0.92
				c-2.63,1.645-6.493,1.217-7.862-1.586c-1.941-1.848-2.044-5.378-0.508-7.628c0-2.818,0-5.636-0.002-8.455
				c-0.035-32.311-0.207-64.665-2.337-96.918c-1.308-19.798-4.288-39.329-6.045-59.059c-1.536-17.242-2.624-34.632-2.338-51.949
				c0.079-4.771-0.611-16.063,2.162-23.435c-0.931-3.111,0.489-6.842,4.624-6.843c86.019-0.022,172.006-2.979,258.026-3.001
				c5.291-0.002,7.108,6.16,4.703,9.249c0,38.599,0.003,77.198,0.339,115.796c0.171,19.613,0.416,39.227,0.79,58.837
				c0.343,17.927,1.753,35.867,1.87,53.782c0.006,0.887-0.163,1.677-0.461,2.365C384.171,386.772,384.363,387.985,384.021,389.405z"
				/>
		</g>
	</g>
	<g>
		<g>
			<path class="st21" d="M239.17,197.385c-0.654-8.219-1.477-16.432-1.863-24.668c-0.196-4.184-0.921-9.729,0.105-14.293
				c-37.725,0.646-75.45,1.245-113.181,1.304c-0.021,0.094-0.045,0.2-0.073,0.319c-0.58,2.49-0.908,5.035-1.126,7.58
				c-0.616,7.188-0.575,14.443-0.43,21.651c0.333,16.493,1.329,33.028,3.147,49.427c1.452,13.1,2.937,26.145,4.133,39.229
				c0.265-0.035,0.537-0.06,0.828-0.06c36.833,0.038,73.613,2.216,110.433,2.832v-10.058
				C241.144,246.17,241.11,221.797,239.17,197.385z"/>
		</g>
	</g>
	<g>
		<g>
			<path d="M489.918,182.852c-14.168-46.857-40.94-88.285-82.013-115.738c-46.358-30.985-105.275-38.447-159.782-34.447
				c-51.701,3.795-104.629,17.898-148.597,45.979C77.924,92.44,58.648,110.543,44.56,132.026
				c-14.86,22.66-22.512,48.775-26.582,75.363c-2.309,15.085-3.438,30.333-4.418,45.553c-0.061,0.949,0.094,1.805,0.399,2.563
				c-0.89,0.938-1.472,2.218-1.472,3.828c0,30.126-0.646,60.399,4.645,90.183c4.822,27.145,15.228,52.928,31.629,75.148
				c29.151,39.498,73.502,63.312,120.389,74.99c88.94,22.154,194.246,3.654,264.501-57.08
				C507.63,378.622,516.809,271.788,489.918,182.852z M425.518,435.338c-70.764,60.414-176.923,76.033-264.923,50.809
				c-42.718-12.244-81.876-36.629-107.198-73.711c-31.139-45.604-30.075-101.012-30.075-153.938c0-0.271-0.021-0.525-0.052-0.772
				c0.529-0.672,0.881-1.566,0.955-2.711c1.737-26.987,4.143-54.127,12.104-80.102c7.923-25.852,23.083-48.301,42.662-66.768
				c37.299-35.18,89.797-53.191,139.577-61.098c55.463-8.811,115.467-6.389,166.417,19.262
				c44.607,22.459,75.142,63.056,91.268,109.607C506.435,263.053,499.625,372.067,425.518,435.338z"/>
		</g>
	</g>
	<g>
		<g>
			<path d="M383.646,385.797c0.298-0.688,0.467-1.479,0.461-2.365c-0.117-17.915-1.527-35.855-1.87-53.782
				c-0.374-19.61-0.619-39.224-0.79-58.837c-0.336-38.598-0.339-77.197-0.339-115.796c2.406-3.089,0.588-9.251-4.703-9.249
				c-86.02,0.022-172.007,2.979-258.026,3.001c-4.135,0.001-5.555,3.731-4.624,6.843c-2.773,7.371-2.083,18.664-2.162,23.435
				c-0.286,17.317,0.802,34.707,2.338,51.949c1.758,19.729,4.738,39.261,6.045,59.059c2.13,32.253,2.302,64.607,2.337,96.918
				c0.003,2.819,0.002,5.637,0.002,8.455c-1.537,2.25-1.433,5.78,0.508,7.628c1.37,2.803,5.232,3.23,7.862,1.586
				c23.282,1.565,46.616,0.146,69.897-0.92c14.095-0.645,28.18-0.818,42.267-0.761c1.227,1.528,3.213,2.255,5.596,1.085
				c0.613-0.301,1.145-0.657,1.632-1.043c9.909,0.094,19.821,0.286,29.739,0.5c22.655,0.488,45.343,0.4,67.979,1.339
				c13.044,0.541,32.427,0.337,36.223-15.437C384.363,387.985,384.171,386.772,383.646,385.797z M129.883,277.934
				c-1.196-13.084-2.681-26.129-4.133-39.229c-1.818-16.398-2.814-32.934-3.147-49.427c-0.146-7.208-0.187-14.463,0.43-21.651
				c0.218-2.545,0.546-5.09,1.126-7.58c0.028-0.119,0.052-0.226,0.073-0.319c37.731-0.059,75.456-0.657,113.181-1.304
				c-1.026,4.563-0.302,10.109-0.105,14.293c0.387,8.236,1.209,16.449,1.863,24.668c1.94,24.412,1.974,48.785,1.974,73.264v10.058
				c-36.82-0.616-73.6-2.794-110.433-2.832C130.42,277.875,130.147,277.899,129.883,277.934z M243.069,391.997
				c-15.067-0.06-30.125,0.15-45.207,0.841c-21.479,0.983-43.082,2.387-64.573,1.029v-0.013c0-0.012-0.002-0.022-0.002-0.035
				c-0.007-29.148-0.098-58.303-1.396-87.427c-0.263-5.884-0.637-11.746-1.085-17.596c0.243,0.029,0.492,0.049,0.752,0.049
				c36.549,0.038,73.05,2.104,109.586,2.788v65.646c0,6.607,0.985,13.27,1.464,19.854c0.289,3.971,0.5,7.949,0.536,11.931
				C243.151,390.045,243.123,391.021,243.069,391.997z M248.615,177.51c-0.274-3.91-0.482-7.825-0.53-11.744
				c-0.017-1.377-0.01-2.756,0.119-4.125c0.054-0.564,0.151-1.121,0.26-1.678c0.025-0.037,0.056-0.086,0.091-0.149
				c0.307-0.543,0.506-1.075,0.62-1.591c40.318-0.694,80.637-1.385,120.962-1.469c0,37.652,0.016,75.304,0.323,112.953
				c0.013,1.622,0.037,3.244,0.051,4.865c-3.368,0.565-7.057,0.3-10.312,0.302c-1.334,0.001-2.441,0.558-3.278,1.407
				c-34.969-1.021-69.815,4.479-104.811,4.523c-0.02-26.402-0.225-52.671-1.606-79.046
				C250.08,193.666,249.183,185.595,248.615,177.51z M373.223,387.305c-1.258,5.23-8.446,5.941-12.849,6.391
				c-6.832,0.697-13.763,0.168-20.6-0.168c-22.844-1.127-45.887-0.689-68.763-1.164c-5.648-0.117-11.292-0.211-16.934-0.278
				c0.041-1.316,0.033-2.626,0.035-3.868c0.016-8.237-0.891-16.48-1.567-24.681c-0.9-10.917-0.432-21.939-0.432-32.884v-38.869
				c17.594,0.064,35.066-0.83,52.625-2.226c18.739-1.488,37.495-2.988,56.307-2.213c1.389,0.058,2.535-0.556,3.384-1.491
				c2.053,0.001,4.141-0.044,6.199-0.248c0.153,14.308,0.34,28.613,0.602,42.919c0.34,18.585,1.786,37.183,1.906,55.753
				c0.005,0.794,0.153,1.482,0.402,2.08C373.415,386.654,373.305,386.965,373.223,387.305z"/>
		</g>
	</g>
</g>
</svg>
