<?xml version="1.0" encoding="utf-8"?>
<!-- Generator: Adobe Illustrator 16.0.3, SVG Export Plug-In . SVG Version: 6.00 Build 0)  -->
<!DOCTYPE svg PUBLIC "-//W3C//DTD SVG 1.1//EN" "http://www.w3.org/Graphics/SVG/1.1/DTD/svg11.dtd">
<svg version="1.1" id="Layer_1" xmlns="http://www.w3.org/2000/svg" xmlns:xlink="http://www.w3.org/1999/xlink" x="0px" y="0px"
	 width="512px" height="512px" viewBox="0 0 512 512" style="enable-background:new 0 0 512 512;" xml:space="preserve">
<style type="text/css">
<![CDATA[
	.st0{fill:#14B6B9;}
	.st1{fill:#4B7BB2;}
	.st2{fill:#1E4384;}
	.st3{fill:#ED488B;}
	.st4{fill:#EF4754;}
	.st5{fill:#EF4823;}
	.st6{fill:#8A4581;}
	.st7{fill:#BCBCBC;}
	.st8{fill:#F26322;}
	.st9{fill:#F6851F;}
	.st10{fill:#283D5B;}
	.st11{fill:#C56528;}
	.st12{fill:#2B8C5E;}
	.st13{fill:#FCBF95;}
	.st14{fill:#FEBF10;}
	.st15{fill:none;}
	.st16{fill:#CAD7D6;}
	.st17{fill:#CBDB2D;}
	.st18{fill:#373837;}
	.st19{fill:#D03827;}
	.st20{fill:#3AB37C;}
	.st21{fill:#D6E5E5;}
	.st22{fill:#71C598;}
]]>
</style>
<g>
	<g>
		<g>
			<path class="st21" d="M409.786,167.821c-1.124-0.179-2.242-0.292-3.388-0.295c-3.833-0.011-7.66,0.221-11.479,0.531
				c-20.428,1.658-41.09,0.815-61.583,0.783c0.213,5.145,0.715,10.264,1.319,15.378c25.076,2.914,50.428-0.145,75.595-0.521
				C410.506,178.456,411.133,172.688,409.786,167.821z"/>
		</g>
	</g>
	<g>
		<g>
			<path class="st21" d="M281.492,291.56c-1.363-8.128-3.93-13.956-9.077-20.377c-2.406-3-5.025-5.927-8.084-8.283
				c-0.257-0.198-0.538-0.423-0.831-0.652c-3.159-3.76-7.177-6.975-11.463-9.69c0.329-0.257,0.695-0.491,1.108-0.69
				c0.254-0.124,0.507-0.252,0.76-0.378c0.588-0.38,1.195-0.675,1.811-0.93c7.631-4.05,14.711-9.502,19.57-16.699
				c5.651-8.371,7.25-18.229,6.636-28.149c-1.146-18.527-7.583-37.73-21.129-50.951c-6.615-6.457-14.58-11.861-23.479-14.628
				c-11.789-3.665-24.481-4.203-36.745-4.419c-26.529-0.466-52.976,2.116-79.489,2.412c-0.076,0.322-0.174,0.648-0.312,0.98
				c-1.424,3.406-0.132,8.135,0.626,11.57c0.932,4.227,1.8,8.399,2.319,12.699c1.226,10.169,2.93,20.439,3.301,30.682
				c0.389,10.729-0.334,21.456-0.019,32.184c0.315,10.698,1.027,21.367,1.17,32.075c0.288,21.464-0.148,43.019,1.852,64.418
				c0.741,7.931-0.011,15.872-0.27,23.81c-0.237,7.26-0.736,15.206,2.127,22.044c0.17,0.407,0.289,0.803,0.362,1.185
				c26.551,5.75,54.876,4.315,81.562,0.541c13.092-1.852,26.518-2.927,39.499-5.364c8.021-1.506,16.163-4.659,21.262-11.343
				c5.863-7.685,7.221-17.921,8.012-27.291C283.542,314.82,283.404,302.956,281.492,291.56z M159.991,233.357
				c-1.76-0.583-3.132-2.069-3.148-4.548c-0.123-19.458-3.833-38.707-3.944-58.175c-0.025-4.441,4.361-6.396,7.556-5.42
				c0.42-0.181,0.877-0.322,1.38-0.406c17.013-2.846,35.162-6.47,52.325-2.676c16.766,3.706,32.913,16.294,35.054,34.414
				c1.951,16.502-10.924,28.465-24.918,34.509c-7.947,3.433-16.265,5.254-24.862,6.006c-12.161,1.064-24.347,2.031-36.245-1.374
				C161.709,235.264,160.659,234.409,159.991,233.357z M228.466,344.376c-7.064,2.254-14.69,3.979-22.101,4.473
				c-9.969,0.664-19.977-0.183-29.892,1.302c-2.333,0.349-3.963-0.646-4.845-2.157c-2.49,0.81-6.01-0.773-6.607-3.431
				c-4.045-17.999-3.279-36.304-3.248-54.621c0.007-3.614,2.927-5.58,5.732-5.66c0.583-0.834,1.5-1.502,2.813-1.849
				c9.142-2.416,18.127-1.803,27.446-2.406c8.726-0.565,17.919-2.032,26.581-0.112c15.249,3.38,28.402,17.093,28.972,33.245
				C253.88,329.103,242.897,339.771,228.466,344.376z"/>
		</g>
	</g>
	<g>
		<g>
			<path class="st2" d="M242.5,313.996c-1.184-13.35-11.66-23.261-24.929-24.061c-7.329-0.441-14.602,0.945-21.916,1.036
				c-7.289,0.092-14.64-0.178-21.75,1.701c-0.462,0.122-0.907,0.183-1.337,0.198c-0.127,14.404-0.692,29.066,1.751,43.29
				c1.088,0.578,1.9,1.595,2.138,3.065c14.967-2.079,30.03,0.148,44.8-4.002C231.427,332.366,243.621,326.629,242.5,313.996z"/>
		</g>
	</g>
	<g>
		<g>
			<path class="st2" d="M237.923,195.251c-9.933-31.461-49.11-24.038-74.072-19.825c0.637,16.781,3.425,33.43,3.769,50.222
				c9.637,2.263,19.287,1.619,29.147,0.756c7.507-0.657,14.665-1.765,21.688-4.64C228.834,217.516,242.06,208.352,237.923,195.251z"
				/>
		</g>
	</g>
	<g>
		<g>
			<path class="st2" d="M392.859,250.501c-4.408-2.225-9.48-2.309-14.294-1.692c-7.166,0.918-18.407,3.584-22.381,10.652
				c3.736-0.008,7.473-0.035,11.207-0.141c5.347-0.152,10.875-1.019,16.202-0.827c3.521,0.126,7.032,0.486,10.554,0.583
				c1.42,0.04,3.396,0.261,5.226,0.169C397.981,255.757,396.112,252.144,392.859,250.501z"/>
		</g>
	</g>
	<g>
		<g>
			<path class="st2" d="M489.059,210.593c-3.508-26.247-10.268-52.83-24.108-75.667c-44.54-73.497-142.44-99.958-223.53-91.363
				c-50.214,5.323-99.221,25.267-136.853,59.368c-20.101,18.214-36.816,39.446-47.254,64.645
				c-10.479,25.297-14.74,52.572-16.034,79.796c-0.056,1.178-0.418,2.178-0.972,3.002c0.302,33.042,7.833,65.519,20.896,95.86
				c12.629,29.335,30.342,57.178,53.692,79.162c15.92,14.988,34.277,27.426,54.891,34.986c25.295,9.277,53.268,10.477,79.933,9.246
				c31.068-1.434,61.881-6.509,92.256-13.025c24.806-5.322,49.838-12.478,72.208-24.711c22.917-12.533,43.238-29.939,55.761-53.171
				c13.345-24.757,19.278-52.466,21.344-80.341C493.441,269.343,492.918,239.463,489.059,210.593z M327.193,160.238
				c0.747-1.299,2.112-2.219,4.146-2.219h44.43c8.887,0,17.617-1.044,26.485-1.271c6.396-0.164,16.027-0.577,17.765,7.468
				c1.533,7.093,1.015,14.272,0.958,21.472c-0.011,1.393-0.459,2.537-1.16,3.427c0.182,2.682-1.352,5.347-4.818,5.357
				c-28.734,0.084-57.623,3.969-86.25-0.085c-2.455-0.348-4.085-2.591-4.374-4.906c-0.981-7.868-1.897-15.726-1.972-23.665
				C322.374,162.58,324.694,160.663,327.193,160.238z M292.938,331.177c-1.209,10.399-3.418,21.275-10.23,29.589
				c-5.967,7.281-14.498,11.916-23.621,13.971c-13.297,2.996-27.215,3.917-40.708,5.857c-30.015,4.315-61.934,6.249-91.673-0.948
				c-3.13-0.757-4.375-3.438-4.143-5.94c-0.363-0.43-0.678-0.938-0.927-1.534c-6.301-15.047-1.065-32.843-2.437-48.605
				c-1.975-22.691-1.465-45.46-1.914-68.207c-0.223-11.322-1.225-22.644-1.164-33.965c0.061-11.331,0.827-22.788-0.474-34.077
				c-1.153-10-1.692-20.423-3.875-30.256c-1.666-7.506-3.825-15.367-0.724-22.783c0.186-0.444,0.407-0.83,0.653-1.17
				c-0.377-2.815,1.128-5.76,4.774-5.77c32.118-0.08,64.205-3.981,96.325-1.893c12.567,0.817,25.073,2.235,36.5,7.93
				c9.186,4.577,17.282,10.971,23.807,18.898c13.332,16.195,20.616,38.475,19.754,59.452c-0.741,18.038-9.291,31.999-22.474,42.059
				c5.438,3.866,9.983,9.576,13.583,14.771c5.343,7.71,7.581,15.748,8.758,25.05C294.299,306.011,294.384,318.75,292.938,331.177z
				 M443.661,269.854c-0.866,9.752-0.637,19.661-0.776,29.532H436.1c-0.636,0.302-1.392,0.477-2.275,0.479
				c-27.029,0.042-54.024,1.709-81.05,1.93c-0.537,0.694-1.291,1.28-2.282,1.684c0.058-0.002,0.071-0.022-0.089,0.04
				c0.031-0.012,0.058-0.027,0.089-0.04c-0.066,0.003-0.191-0.018-0.195-0.216c0.028,1.412,0.266,2.642,0.759,3.967
				c1.203,3.238,2.883,6.224,4.819,9.081c1.776,2.621,3.636,5.273,5.821,7.574c2.318,2.44,2.091,2.431,4.964,3.58
				c8.714,3.484,32.601,6.436,33.815-7.421c0.179-2.036,1.217-3.289,2.578-3.877c0.705-1.443,2.12-2.485,4.3-2.469
				c8.885,0.068,17.738,0.919,26.623,0.986c2.597,0.02,4.344,1.541,5.151,3.437h2.667c-0.464,3.775-1.121,7.527-2.062,11.244
				c-5.041,19.918-18.186,35.008-37.873,41.607c-39.062,13.094-87.881-4.444-98.51-46.913c-5.584-22.314-4.283-46.866,2.123-68.894
				c5.962-20.504,22.984-35.582,42.74-42.646c19.329-6.912,43.287-8.339,62.062,1.157c19.47,9.847,36.494,30.226,32.801,53.062
				C443.531,267.62,443.766,268.664,443.661,269.854z"/>
		</g>
	</g>
	<g>
		<g>
			<path class="st21" d="M347.206,291.019c28.358-0.041,56.678-1.889,85.035-1.965c0.058-6.083,0.132-12.162,0.541-18.192
				c-0.76-1.037-1.114-2.408-0.754-4.063c3.512-16.157-7.346-31.735-20.632-40.049c-12.37-7.74-26.84-10.02-41.235-8.318
				c-14.127,1.669-28.94,6.873-39.542,16.694c-11.078,10.264-15.566,22.861-17.934,37.487c-3.485,21.531-4.048,48.484,9.324,67.052
				c12.76,17.718,35.801,26.06,57.151,24.723c21.415-1.341,42.579-11.604,48.956-33.527c0.529-1.819,0.973-3.649,1.369-5.486
				c-6.249-0.224-12.488-0.67-18.74-0.813c-4.167,19.808-36.18,19.224-50.39,11.953c-9.782-5.005-28.136-30.135-17.977-40.418
				C342.316,293.508,343.857,291.023,347.206,291.019z M344.272,260.882c2.704-14.895,20.13-21.469,33.458-22.89
				c7.038-0.75,14.604-0.353,20.841,3.313c6.573,3.863,9.803,10.972,12.347,17.832c0.42,1.134,0.457,2.175,0.228,3.093
				c0.386,1.849-0.198,3.842-2.314,5.168c-6.53,4.091-15.468,2.414-22.723,1.98c-5.282-0.315-10.676,0.553-15.969,0.704
				c-6.379,0.181-12.759,0.2-19.14,0.201c-3.315,0-5.244-2.455-5.604-5.024C344.451,264.188,343.941,262.706,344.272,260.882z"/>
		</g>
	</g>
	<g>
		<g>
			<path d="M502.682,240.413c-1.363-29.686-5.748-59.667-16.696-87.438c-7.811-19.812-19.47-37.584-34.064-53.049
				c-29.334-31.084-69.757-50.16-110.771-60.314c-41.53-10.282-85.599-11.33-127.522-2.839
				c-48.638,9.852-93.893,34.188-128.567,69.729c-18.207,18.663-32.187,40.655-41.096,65.172
				c-8.653,23.812-12.187,48.896-13.526,74.086c-0.694,0.9-1.131,2.054-1.131,3.457c0.012,46.456,14.208,92.406,37.495,132.418
				c22.201,38.146,55.151,71.982,96.863,88.139c24.628,9.539,51.397,11.471,77.587,11.106c31.049-0.433,61.924-5.289,92.307-11.39
				c50.024-10.045,101.697-26.437,134.602-68.007C503.3,357.093,505.161,294.386,502.682,240.413z M491.289,298.379
				c-2.066,27.875-7.999,55.584-21.344,80.341c-12.522,23.232-32.844,40.639-55.761,53.171
				c-22.37,12.233-47.402,19.389-72.208,24.711c-30.375,6.516-61.188,11.591-92.256,13.025c-26.665,1.23-54.638,0.031-79.933-9.246
				c-20.614-7.56-38.97-19.998-54.891-34.986c-23.35-21.983-41.063-49.827-53.692-79.162c-13.062-30.341-20.594-62.818-20.896-95.86
				c0.554-0.824,0.916-1.825,0.972-3.002c1.294-27.224,5.555-54.499,16.034-79.796c10.438-25.198,27.154-46.43,47.254-64.645
				c37.632-34.101,86.639-54.044,136.853-59.368c81.09-8.596,178.99,17.866,223.53,91.363c13.84,22.837,20.6,49.42,24.108,75.667
				C492.918,239.463,493.441,269.343,491.289,298.379z"/>
		</g>
	</g>
	<g>
		<g>
			<path d="M292.731,293.606c-1.177-9.302-3.415-17.34-8.758-25.05c-3.6-5.195-8.145-10.905-13.583-14.771
				c13.183-10.061,21.733-24.021,22.474-42.059c0.862-20.977-6.422-43.257-19.754-59.452c-6.525-7.928-14.622-14.321-23.807-18.898
				c-11.427-5.694-23.933-7.113-36.5-7.93c-32.121-2.088-64.207,1.813-96.325,1.893c-3.646,0.009-5.151,2.955-4.774,5.77
				c-0.246,0.34-0.467,0.726-0.653,1.17c-3.101,7.416-0.942,15.276,0.724,22.783c2.183,9.833,2.722,20.255,3.875,30.256
				c1.301,11.289,0.534,22.747,0.474,34.077c-0.061,11.321,0.94,22.643,1.164,33.965c0.448,22.747-0.061,45.516,1.914,68.207
				c1.372,15.763-3.865,33.558,2.437,48.605c0.25,0.595,0.564,1.104,0.927,1.534c-0.232,2.503,1.013,5.183,4.143,5.94
				c29.739,7.197,61.658,5.263,91.673,0.948c13.492-1.94,27.41-2.861,40.708-5.857c9.123-2.056,17.654-6.69,23.621-13.971
				c6.812-8.314,9.021-19.19,10.23-29.589C294.384,318.75,294.299,306.011,292.731,293.606z M282.571,326.314
				c-0.792,9.37-2.149,19.606-8.012,27.291c-5.099,6.684-13.241,9.837-21.262,11.343c-12.981,2.437-26.407,3.512-39.499,5.364
				c-26.686,3.774-55.011,5.209-81.562-0.541c-0.073-0.382-0.191-0.778-0.362-1.185c-2.864-6.838-2.364-14.784-2.127-22.044
				c0.259-7.938,1.011-15.879,0.27-23.81c-2-21.399-1.564-42.954-1.852-64.418c-0.143-10.708-0.855-21.377-1.17-32.075
				c-0.315-10.728,0.407-21.455,0.019-32.184c-0.371-10.243-2.075-20.512-3.301-30.682c-0.519-4.3-1.387-8.473-2.319-12.699
				c-0.758-3.435-2.05-8.164-0.626-11.57c0.139-0.332,0.237-0.658,0.312-0.98c26.513-0.296,52.96-2.878,79.489-2.412
				c12.264,0.216,24.957,0.754,36.745,4.419c8.899,2.767,16.864,8.171,23.479,14.628c13.545,13.221,19.982,32.424,21.129,50.951
				c0.614,9.92-0.985,19.778-6.636,28.149c-4.859,7.197-11.939,12.649-19.57,16.699c-0.615,0.255-1.222,0.55-1.811,0.93
				c-0.253,0.126-0.506,0.255-0.76,0.378c-0.413,0.199-0.779,0.433-1.108,0.69c4.286,2.715,8.304,5.93,11.463,9.69
				c0.293,0.229,0.574,0.454,0.831,0.652c3.059,2.356,5.679,5.283,8.084,8.283c5.146,6.421,7.713,12.249,9.077,20.377
				C283.404,302.956,283.542,314.82,282.571,326.314z"/>
		</g>
	</g>
	<g>
		<g>
			<path d="M249.214,196.546c-2.141-18.12-18.289-30.708-35.054-34.414c-17.164-3.793-35.312-0.17-52.325,2.676
				c-0.503,0.084-0.959,0.226-1.38,0.406c-3.195-0.976-7.581,0.979-7.556,5.42c0.111,19.468,3.821,38.716,3.944,58.175
				c0.016,2.479,1.388,3.966,3.148,4.548c0.668,1.052,1.719,1.907,3.198,2.33c11.898,3.404,24.083,2.438,36.245,1.374
				c8.598-0.752,16.916-2.574,24.862-6.006C238.29,225.011,251.165,213.048,249.214,196.546z M218.456,221.765
				c-7.024,2.875-14.182,3.983-21.688,4.64c-9.86,0.863-19.511,1.507-29.147-0.756c-0.344-16.792-3.132-33.441-3.769-50.222
				c24.961-4.213,64.139-11.637,74.072,19.825C242.06,208.352,228.834,217.516,218.456,221.765z"/>
		</g>
	</g>
	<g>
		<g>
			<path d="M253.317,313.161c-0.57-16.152-13.724-29.865-28.972-33.245c-8.662-1.92-17.855-0.453-26.581,0.112
				c-9.318,0.604-18.304-0.009-27.446,2.406c-1.313,0.347-2.23,1.015-2.813,1.849c-2.805,0.08-5.725,2.045-5.732,5.66
				c-0.031,18.317-0.797,36.622,3.248,54.621c0.597,2.658,4.118,4.241,6.607,3.431c0.882,1.511,2.513,2.506,4.845,2.157
				c9.915-1.485,19.923-0.638,29.892-1.302c7.411-0.494,15.036-2.219,22.101-4.473C242.897,339.771,253.88,329.103,253.317,313.161z
				 M221.258,335.224c-14.77,4.15-29.833,1.923-44.8,4.002c-0.238-1.471-1.05-2.488-2.138-3.065
				c-2.443-14.224-1.879-28.886-1.751-43.29c0.43-0.015,0.875-0.077,1.337-0.198c7.11-1.879,14.461-1.609,21.75-1.701
				c7.314-0.091,14.587-1.478,21.916-1.036c13.27,0.799,23.746,10.711,24.929,24.061
				C243.621,326.629,231.427,332.366,221.258,335.224z"/>
		</g>
	</g>
	<g>
		<g>
			<path d="M350.492,303.478c-0.031,0.013-0.058,0.028-0.089,0.04C350.563,303.456,350.55,303.476,350.492,303.478z"/>
		</g>
	</g>
	<g>
		<g>
			<path d="M443.076,266.735c3.692-22.836-13.331-43.215-32.801-53.062c-18.775-9.496-42.733-8.069-62.062-1.157
				c-19.755,7.065-36.777,22.143-42.74,42.646c-6.406,22.028-7.708,46.58-2.123,68.894c10.629,42.469,59.448,60.007,98.51,46.913
				c19.687-6.599,32.832-21.688,37.873-41.607c0.94-3.716,1.597-7.468,2.062-11.244h-2.667c-0.807-1.896-2.555-3.417-5.151-3.437
				c-8.885-0.067-17.738-0.918-26.623-0.986c-2.18-0.016-3.595,1.026-4.3,2.469c-1.361,0.589-2.399,1.841-2.578,3.877
				c-1.215,13.857-25.101,10.905-33.815,7.421c-2.873-1.149-2.646-1.14-4.964-3.58c-2.186-2.301-4.045-4.953-5.821-7.574
				c-1.936-2.856-3.616-5.842-4.819-9.081c-0.493-1.325-0.731-2.555-0.759-3.967c0.004,0.198,0.129,0.219,0.195,0.216
				c0.992-0.404,1.745-0.99,2.282-1.684c27.026-0.221,54.021-1.888,81.05-1.93c0.883-0.001,1.64-0.176,2.275-0.479h6.785
				c0.139-9.871-0.09-19.78,0.776-29.532C443.766,268.664,443.531,267.62,443.076,266.735z M432.241,289.053
				c-28.357,0.076-56.677,1.925-85.035,1.965c-3.349,0.005-4.89,2.489-4.828,5.076c-10.159,10.283,8.195,35.413,17.977,40.418
				c14.21,7.271,46.223,7.855,50.39-11.953c6.252,0.143,12.492,0.589,18.74,0.813c-0.396,1.836-0.839,3.667-1.369,5.486
				c-6.377,21.923-27.542,32.186-48.956,33.527c-21.351,1.337-44.391-7.005-57.151-24.723
				c-13.372-18.568-12.809-45.521-9.324-67.052c2.368-14.626,6.856-27.223,17.934-37.487c10.601-9.821,25.414-15.025,39.542-16.694
				c14.395-1.702,28.865,0.578,41.235,8.318c13.287,8.314,24.145,23.892,20.632,40.049c-0.36,1.655-0.005,3.027,0.754,4.063
				C432.373,276.892,432.299,282.97,432.241,289.053z"/>
		</g>
	</g>
	<g>
		<g>
			<path d="M410.917,259.137c-2.543-6.86-5.774-13.968-12.347-17.832c-6.237-3.666-13.803-4.063-20.841-3.313
				c-13.328,1.421-30.754,7.995-33.458,22.89c-0.331,1.824,0.179,3.306,1.124,4.377c0.359,2.57,2.288,5.024,5.604,5.024
				c6.381-0.001,12.761-0.02,19.14-0.201c5.293-0.151,10.687-1.019,15.969-0.704c7.255,0.434,16.193,2.111,22.723-1.98
				c2.116-1.326,2.7-3.319,2.314-5.168C411.374,261.312,411.338,260.271,410.917,259.137z M394.146,259.076
				c-3.522-0.097-7.032-0.457-10.554-0.583c-5.328-0.192-10.855,0.675-16.202,0.827c-3.734,0.106-7.471,0.133-11.207,0.141
				c3.975-7.068,15.216-9.734,22.381-10.652c4.814-0.617,9.887-0.533,14.294,1.692c3.253,1.643,5.122,5.256,6.513,8.744
				C397.542,259.337,395.566,259.116,394.146,259.076z"/>
		</g>
	</g>
	<g>
		<g>
			<path d="M420.019,164.217c-1.738-8.045-11.37-7.632-17.765-7.468c-8.868,0.227-17.598,1.271-26.485,1.271h-44.43
				c-2.034,0-3.399,0.919-4.146,2.219c-2.499,0.425-4.819,2.341-4.789,5.579c0.075,7.939,0.991,15.796,1.972,23.665
				c0.289,2.315,1.919,4.559,4.374,4.906c28.626,4.054,57.516,0.17,86.25,0.085c3.466-0.01,5-2.676,4.818-5.357
				c0.701-0.89,1.148-2.034,1.16-3.427C421.034,178.489,421.552,171.31,420.019,164.217z M410.25,183.698
				c-25.167,0.376-50.52,3.434-75.595,0.521c-0.604-5.115-1.106-10.233-1.319-15.378c20.493,0.032,41.155,0.875,61.583-0.783
				c3.819-0.31,7.646-0.542,11.479-0.531c1.146,0.003,2.264,0.117,3.388,0.295C411.133,172.688,410.506,178.456,410.25,183.698z"/>
		</g>
	</g>
</g>
</svg>
