<?xml version="1.0" encoding="utf-8"?>
<!-- Generator: Adobe Illustrator 16.0.3, SVG Export Plug-In . SVG Version: 6.00 Build 0)  -->
<!DOCTYPE svg PUBLIC "-//W3C//DTD SVG 1.1//EN" "http://www.w3.org/Graphics/SVG/1.1/DTD/svg11.dtd">
<svg version="1.1" id="Layer_1" xmlns="http://www.w3.org/2000/svg" xmlns:xlink="http://www.w3.org/1999/xlink" x="0px" y="0px"
	 width="512px" height="512px" viewBox="0 0 512 512" style="enable-background:new 0 0 512 512;" xml:space="preserve">
<style type="text/css">
<![CDATA[
	.st0{fill:#14B6B9;}
	.st1{fill:#4B7BB2;}
	.st2{fill:#1E4384;}
	.st3{fill:#ED488B;}
	.st4{fill:#EF4754;}
	.st5{fill:#EF4823;}
	.st6{fill:#8A4581;}
	.st7{fill:#BCBCBC;}
	.st8{fill:#F26322;}
	.st9{fill:#F6851F;}
	.st10{fill:#283D5B;}
	.st11{fill:#C56528;}
	.st12{fill:#2B8C5E;}
	.st13{fill:#FCBF95;}
	.st14{fill:#FEBF10;}
	.st15{fill:none;}
	.st16{fill:#CAD7D6;}
	.st17{fill:#CBDB2D;}
	.st18{fill:#373837;}
	.st19{fill:#D03827;}
	.st20{fill:#3AB37C;}
	.st21{fill:#D6E5E5;}
	.st22{fill:#71C598;}
]]>
</style>
<g>
	<g>
		<g>
			<path class="st9" d="M322.453,284.188c-2.577-8.639-9.388-12.951-18.044-14.291c-11.071-1.713-22.345,0.434-33.416,1.164
				c-14.404,0.95-28.838,1.584-43.125,3.765c-0.016,0.002-0.031,0.002-0.047,0.005c-5.913,6.866-7.196,16.624-1.509,24.242
				c6.604,8.845,18.472,10.672,28.829,10.509c11.581-0.182,23.173-1.323,34.748-1.795c8.005-0.327,16.39-1.231,23.712-4.727
				C321.138,299.463,324.927,292.479,322.453,284.188z"/>
		</g>
	</g>
	<g>
		<g>
			<path class="st21" d="M385.658,257.314c-2.799-10.089-8.247-19.327-17.52-24.733c-11.68-6.81-25.097-9.769-35.821-18.423
				c-20.389-16.453-25.169-44.185-44.072-61.792c-16.891-15.732-37.984-19.023-60.185-20.61
				c-24.657-1.762-52.102-1.115-69.129,19.147c0,33.788,0.023,67.587,1.229,101.356c0.616,17.232,1.448,34.475,2.869,51.662
				c0.976,11.805,3.544,24.001,9.61,34.326c5.376,9.151,12.82,16.882,22.507,21.469c12.861,6.09,27.522,7.375,41.583,7.17
				c15.482-0.226,30.959-1.975,46.45-1.491c13.817,0.432,27.446,1.683,41.266,0.147c13.578-1.509,28.087-4.85,39.476-12.791
				c9.474-6.605,16.034-16.222,19.232-27.31c3.25-11.267,4.304-22.982,4.752-34.659C388.329,279.748,388.639,268.06,385.658,257.314
				z M201.983,203.659c-12.845-4.696-10.522-25.915,0.308-34.753c12.392-10.113,33.92-10.514,48.802-6.372
				c6.82,1.898,14.247,4.868,18.451,10.922c4.523,6.512,4.17,14.668,0.654,21.59c-5.482,10.791-21.884,9.209-32.155,10.221
				c-7.595,0.748-16.26-0.701-24.01,0.538c-3.852-0.611-7.701-1.127-11.605-1.225C202.256,204.284,202.101,203.979,201.983,203.659z
				 M327.034,306.976c-6.88,6.257-15.581,9.216-24.654,10.654c-10.037,1.591-20.278,1.219-30.392,2.025
				c-12.594,1.004-26.283,2.353-38.353-2.3c-9.717-3.746-18.605-11.287-20.997-21.878c-2.387-10.57,0.127-20.84,7.674-28.766
				c1.224-1.285,2.664-1.791,4.057-1.748c0.708-0.547,1.588-0.943,2.652-1.106c18.613-2.841,37.455-2.909,56.158-4.813
				c18.328-1.865,44.172-0.538,49.656,21.507C335.118,289.723,334.491,300.194,327.034,306.976z"/>
		</g>
	</g>
	<g>
		<g>
			<path class="st9" d="M261.393,181.189c-1.678-3.79-6.304-5.849-9.97-7.131c-10.419-3.645-23.62-3.867-34.139-0.598
				c-6.212,1.93-11.641,5.484-12.967,12.29c-1.005,5.157-0.616,8.406,5.281,7.705c1.884-0.224,3.318,0.397,4.281,1.438
				c4.889-0.423,9.903-0.086,14.745-0.125c8.158-0.066,17.166-0.251,25.159-1.909c0.638-0.132,5.784-1.178,5.973-1.551
				c0.663-1.305,1.41-2.651,1.748-4.088C261.988,185.165,262.275,183.183,261.393,181.189z"/>
		</g>
	</g>
	<g>
		<g>
			<path class="st9" d="M478.689,208.798c-3.508-26.247-10.268-52.83-24.108-75.667c-44.54-73.497-142.44-99.958-223.53-91.363
				c-50.214,5.323-99.221,25.267-136.853,59.368c-20.101,18.214-36.816,39.446-47.254,64.645
				c-10.479,25.297-14.74,52.572-16.034,79.796c-0.056,1.178-0.418,2.178-0.972,3.002c0.302,33.042,7.833,65.519,20.896,95.86
				c12.629,29.335,30.342,57.178,53.692,79.162c15.92,14.988,34.277,27.426,54.891,34.986c25.295,9.277,53.268,10.477,79.933,9.246
				c31.068-1.434,61.881-6.509,92.256-13.025c24.806-5.322,49.838-12.478,72.208-24.711c22.917-12.533,43.238-29.939,55.761-53.171
				c13.345-24.757,19.278-52.466,21.344-80.341C483.071,267.548,482.549,237.668,478.689,208.798z M398.348,299.956
				c-1.58,22.789-7.157,47.192-27.06,61.069c-22.759,15.869-52.233,17.39-78.997,15.843c-29.752-1.72-61.196,5.618-90.293-2.906
				c-21.709-6.36-37.811-22.302-44.915-43.783c-3.921-11.856-4.99-24.015-5.828-36.401c-1.092-16.141-1.844-32.304-2.319-48.475
				c-0.959-32.638-0.976-65.291-0.977-97.939c0-3.004,1.988-4.883,4.27-5.511c12.097-13.356,29.435-19.906,47.324-21.287
				c9.7-0.749,19.416-0.406,29.109,0.287c8.545,0.611,17.183,1.037,25.594,2.762c15.666,3.213,30.707,9.958,42.153,21.357
				c6.005,5.98,11.248,12.721,15.468,20.076c4.89,8.522,8.943,17.545,14.396,25.741c8.192,12.312,18.547,19.575,32.044,25.255
				c11.245,4.732,21.946,9.519,29.317,19.735C400.843,254.086,399.835,278.512,398.348,299.956z"/>
		</g>
	</g>
	<g>
		<g>
			<path d="M492.312,238.619c-1.363-29.686-5.748-59.667-16.696-87.438c-7.811-19.812-19.47-37.584-34.064-53.049
				c-29.334-31.084-69.757-50.16-110.771-60.314c-41.53-10.282-85.599-11.33-127.522-2.839
				c-48.638,9.852-93.893,34.188-128.567,69.729c-18.207,18.663-32.187,40.655-41.096,65.172
				c-8.653,23.812-12.187,48.896-13.526,74.086c-0.694,0.9-1.131,2.054-1.131,3.457c0.012,46.456,14.208,92.406,37.495,132.418
				c22.201,38.146,55.151,71.982,96.863,88.139c24.628,9.539,51.397,11.471,77.587,11.106c31.049-0.433,61.924-5.289,92.307-11.39
				c50.024-10.045,101.697-26.437,134.602-68.007C492.931,355.299,494.791,292.591,492.312,238.619z M480.919,296.585
				c-2.066,27.875-7.999,55.584-21.344,80.341c-12.522,23.232-32.844,40.639-55.761,53.171
				c-22.37,12.233-47.402,19.389-72.208,24.711c-30.375,6.516-61.188,11.591-92.256,13.025c-26.665,1.23-54.638,0.031-79.933-9.246
				c-20.614-7.56-38.97-19.998-54.891-34.986c-23.35-21.983-41.063-49.827-53.692-79.162c-13.062-30.341-20.594-62.818-20.896-95.86
				c0.554-0.824,0.916-1.825,0.972-3.002c1.294-27.224,5.555-54.499,16.034-79.796c10.438-25.198,27.154-46.43,47.254-64.645
				c37.632-34.101,86.639-54.044,136.853-59.368c81.09-8.596,178.99,17.866,223.53,91.363c13.84,22.837,20.6,49.42,24.108,75.667
				C482.549,237.668,483.071,267.548,480.919,296.585z"/>
		</g>
	</g>
	<g>
		<g>
			<path d="M387.635,235.778c-7.371-10.216-18.072-15.002-29.317-19.735c-13.497-5.68-23.852-12.944-32.044-25.255
				c-5.453-8.195-9.506-17.219-14.396-25.741c-4.22-7.355-9.463-14.096-15.468-20.076c-11.446-11.399-26.487-18.144-42.153-21.357
				c-8.411-1.725-17.049-2.151-25.594-2.762c-9.693-0.693-19.409-1.035-29.109-0.287c-17.889,1.381-35.228,7.931-47.324,21.287
				c-2.282,0.627-4.27,2.507-4.27,5.511c0,32.649,0.017,65.302,0.977,97.939c0.476,16.171,1.228,32.334,2.319,48.475
				c0.838,12.386,1.907,24.545,5.828,36.401c7.104,21.481,23.205,37.423,44.915,43.783c29.097,8.523,60.541,1.186,90.293,2.906
				c26.763,1.547,56.238,0.026,78.997-15.843c19.903-13.877,25.48-38.281,27.06-61.069
				C399.835,278.512,400.843,254.086,387.635,235.778z M387.906,290.785c-0.448,11.677-1.502,23.392-4.752,34.659
				c-3.198,11.088-9.759,20.705-19.232,27.31c-11.388,7.94-25.897,11.281-39.476,12.791c-13.82,1.536-27.448,0.285-41.266-0.147
				c-15.491-0.484-30.968,1.265-46.45,1.491c-14.061,0.205-28.722-1.08-41.583-7.17c-9.687-4.587-17.13-12.318-22.507-21.469
				c-6.066-10.325-8.634-22.521-9.61-34.326c-1.421-17.187-2.253-34.43-2.869-51.662c-1.207-33.769-1.229-67.569-1.229-101.356
				c17.027-20.262,44.472-20.909,69.129-19.147c22.201,1.586,43.294,4.877,60.185,20.61c18.903,17.607,23.683,45.339,44.072,61.792
				c10.725,8.654,24.142,11.613,35.821,18.423c9.273,5.407,14.721,14.644,17.52,24.733
				C388.639,268.06,388.329,279.748,387.906,290.785z"/>
		</g>
	</g>
	<g>
		<g>
			<path d="M332.836,280.551c-5.484-22.044-31.328-23.372-49.656-21.507c-18.704,1.904-37.545,1.972-56.158,4.813
				c-1.064,0.163-1.945,0.559-2.652,1.106c-1.393-0.043-2.833,0.462-4.057,1.748c-7.547,7.925-10.062,18.195-7.674,28.766
				c2.392,10.592,11.28,18.133,20.997,21.878c12.07,4.653,25.758,3.304,38.353,2.3c10.114-0.806,20.355-0.434,30.392-2.025
				c9.073-1.438,17.774-4.397,24.654-10.654C334.491,300.194,335.118,289.723,332.836,280.551z M313.602,303.062
				c-7.322,3.495-15.707,4.4-23.712,4.727c-11.575,0.472-23.167,1.613-34.748,1.795c-10.357,0.163-22.226-1.664-28.829-10.509
				c-5.688-7.618-4.404-17.376,1.509-24.242c0.016-0.002,0.031-0.002,0.047-0.005c14.287-2.181,28.721-2.815,43.125-3.765
				c11.071-0.73,22.345-2.877,33.416-1.164c8.656,1.339,15.467,5.652,18.044,14.291
				C324.927,292.479,321.138,299.463,313.602,303.062z"/>
		</g>
	</g>
	<g>
		<g>
			<path d="M269.544,173.457c-4.204-6.054-11.631-9.023-18.451-10.922c-14.882-4.143-36.41-3.742-48.802,6.372
				c-10.83,8.838-13.153,30.057-0.308,34.753c0.118,0.319,0.273,0.625,0.445,0.921c3.905,0.098,7.754,0.614,11.605,1.225
				c7.75-1.239,16.415,0.21,24.01-0.538c10.271-1.011,26.672,0.57,32.155-10.221C273.714,188.125,274.067,179.968,269.544,173.457z
				 M261.504,187.219c-0.338,1.437-1.085,2.783-1.748,4.088c-0.189,0.373-5.335,1.418-5.973,1.551
				c-7.993,1.658-17,1.842-25.159,1.909c-4.842,0.039-9.856-0.297-14.745,0.125c-0.963-1.041-2.397-1.662-4.281-1.438
				c-5.896,0.701-6.286-2.548-5.281-7.705c1.326-6.806,6.754-10.359,12.967-12.29c10.519-3.269,23.72-3.046,34.139,0.598
				c3.666,1.282,8.292,3.342,9.97,7.131C262.275,183.183,261.988,185.165,261.504,187.219z"/>
		</g>
	</g>
</g>
</svg>
