<?xml version="1.0" encoding="utf-8"?>
<!-- Generator: Adobe Illustrator 16.0.3, SVG Export Plug-In . SVG Version: 6.00 Build 0)  -->
<!DOCTYPE svg PUBLIC "-//W3C//DTD SVG 1.1//EN" "http://www.w3.org/Graphics/SVG/1.1/DTD/svg11.dtd">
<svg version="1.1" id="Layer_1" xmlns="http://www.w3.org/2000/svg" xmlns:xlink="http://www.w3.org/1999/xlink" x="0px" y="0px"
	 width="512px" height="512px" viewBox="0 0 512 512" style="enable-background:new 0 0 512 512;" xml:space="preserve">
<style type="text/css">
<![CDATA[
	.st0{fill:#14B6B9;}
	.st1{fill:#4B7BB2;}
	.st2{fill:#1E4384;}
	.st3{fill:#ED488B;}
	.st4{fill:#EF4754;}
	.st5{fill:#EF4823;}
	.st6{fill:#8A4581;}
	.st7{fill:#BCBCBC;}
	.st8{fill:#F26322;}
	.st9{fill:#F6851F;}
	.st10{fill:#283D5B;}
	.st11{fill:#C56528;}
	.st12{fill:#2B8C5E;}
	.st13{fill:#FCBF95;}
	.st14{fill:#FEBF10;}
	.st15{fill:none;}
	.st16{fill:#CAD7D6;}
	.st17{fill:#CBDB2D;}
	.st18{fill:#373837;}
	.st19{fill:#D03827;}
	.st20{fill:#3AB37C;}
	.st21{fill:#D6E5E5;}
	.st22{fill:#71C598;}
]]>
</style>
<g>
	<g>
		<g>
			<path class="st2" d="M237.299,191.716c-0.57,0.977-1.015,2.082-1.326,3.242c-1.261,2.107-1.942,4.573-1.898,7.372
				c-0.003,0.002-0.005,0.004-0.008,0.006c0.001,0.024,0.006,0.046,0.008,0.07c0.001,0.08-0.003,0.157,0,0.236
				c0.006,0.181,0.04,0.349,0.081,0.515c2.094,21.311,40.452,23.343,43.861,0.808C280.908,184.851,244.497,177.381,237.299,191.716z
				"/>
		</g>
	</g>
	<g>
		<g>
			<path class="st21" d="M335.087,132.964c-20.221-15.574-45.147-20.623-70.261-19.763c-26.542,0.909-55.246,7.593-76.432,24.451
				c-19.353,15.399-40.578,37.98-39.115,64.56c0.045,0.819-0.065,1.551-0.285,2.205c1.286,5.542,3.993,11.001,6.222,15.986
				c3.818,8.543,7.79,17.015,11.847,25.447c4.909,10.206,9.319,20.901,14.81,30.802c5.053,9.112,10.833,17.76,16.579,26.442
				c11.813,17.854,21.98,36.696,33.471,54.749c9.48,14.894,20.868,28.35,31.302,42.542c21.781-34.304,36.489-72.249,54.191-108.708
				c7.907-16.284,18.081-31.248,27.083-46.917c8.877-15.452,17.427-32.1,19.036-50.141
				C365.69,170.47,354.045,147.564,335.087,132.964z M289.244,204.728c-2.8,18.512-20.178,28.622-37.904,26.096
				c-15.031-2.141-28.904-12.822-28.496-29.125c0.048-1.891,0.863-3.341,2.031-4.328
				C225.026,159.896,294.61,169.254,289.244,204.728z"/>
		</g>
	</g>
	<g>
		<g>
			<path class="st2" d="M478.689,213.04c-3.508-26.247-10.268-52.83-24.108-75.667c-44.54-73.497-142.44-99.958-223.53-91.363
				c-50.214,5.323-99.221,25.267-136.853,59.368c-20.101,18.214-36.816,39.446-47.254,64.645
				c-10.479,25.297-14.74,52.572-16.034,79.796c-0.056,1.178-0.418,2.178-0.972,3.002c0.302,33.043,7.833,65.52,20.896,95.861
				c12.629,29.334,30.342,57.178,53.692,79.162c15.92,14.988,34.277,27.426,54.891,34.986c25.295,9.275,53.268,10.477,79.933,9.246
				c31.068-1.434,61.881-6.51,92.257-13.025c24.806-5.322,49.838-12.479,72.208-24.711c22.917-12.533,43.238-29.939,55.761-53.172
				c13.345-24.758,19.278-52.465,21.344-80.342C483.071,271.791,482.549,241.91,478.689,213.04z M352.909,252.576
				c-6.773,11.47-14.102,22.635-20.451,34.351c-7.142,13.176-13.142,26.995-19.322,40.638
				c-12.837,28.342-25.768,56.677-42.991,82.689c-0.566,0.856-1.264,1.48-2.025,1.916c-1.8,3.23-6.912,4.753-9.697,0.767
				c-12.308-17.623-26.478-33.752-37.839-52.053c-11.592-18.673-22.356-37.78-34.493-56.116
				c-6.083-9.192-12.051-18.428-16.766-28.409c-4.795-10.154-9.732-20.24-14.572-30.373c-3.891-8.147-7.789-16.316-11.336-24.62
				c-2.861-6.696-6.093-13.959-6.353-21.353c-0.05-1.446,0.362-2.633,1.049-3.556c1.166-19.094,11.692-36.488,24.602-50.316
				c14.891-15.951,32.382-28.36,53.134-35.465c38.91-13.323,87.394-13.796,122.153,10.551c19.107,13.383,33.303,33.79,36.326,57.226
				C377.772,205.166,366.156,230.146,352.909,252.576z"/>
		</g>
	</g>
	<g>
		<g>
			<path d="M492.312,242.86c-1.363-29.686-5.748-59.667-16.696-87.438c-7.811-19.812-19.47-37.584-34.064-53.049
				c-29.335-31.084-69.757-50.16-110.771-60.314c-41.53-10.282-85.599-11.33-127.522-2.839
				c-48.638,9.852-93.893,34.188-128.567,69.729c-18.207,18.663-32.187,40.655-41.096,65.172
				c-8.653,23.812-12.187,48.896-13.526,74.087c-0.694,0.9-1.131,2.055-1.131,3.457c0.012,46.455,14.208,92.404,37.495,132.418
				c22.201,38.145,55.151,71.982,96.863,88.139c24.628,9.539,51.397,11.471,77.587,11.105c31.049-0.434,61.924-5.289,92.307-11.391
				c50.024-10.045,101.697-26.436,134.602-68.006C492.931,359.541,494.791,296.834,492.312,242.86z M480.919,300.826
				c-2.066,27.877-7.999,55.584-21.344,80.342c-12.522,23.232-32.844,40.639-55.761,53.172
				c-22.37,12.232-47.402,19.389-72.208,24.711c-30.375,6.516-61.188,11.592-92.257,13.025c-26.665,1.23-54.638,0.029-79.933-9.246
				c-20.614-7.561-38.97-19.998-54.891-34.986c-23.35-21.984-41.063-49.828-53.692-79.162
				C37.772,318.34,30.24,285.863,29.938,252.82c0.554-0.824,0.916-1.824,0.972-3.002c1.294-27.224,5.555-54.499,16.034-79.796
				c10.438-25.198,27.153-46.43,47.254-64.645c37.632-34.101,86.639-54.044,136.853-59.368c81.09-8.596,178.99,17.866,223.53,91.363
				c13.84,22.837,20.6,49.42,24.108,75.667C482.549,241.91,483.071,271.791,480.919,300.826z"/>
		</g>
	</g>
	<g>
		<g>
			<path d="M224.875,197.372c-1.168,0.987-1.982,2.438-2.031,4.328c-0.409,16.302,13.464,26.984,28.496,29.125
				c17.726,2.525,35.104-7.584,37.904-26.096C294.61,169.254,225.026,159.896,224.875,197.372z M278.017,203.965
				c-3.409,22.535-41.767,20.503-43.861-0.808c-0.041-0.166-0.075-0.334-0.081-0.515c-0.003-0.08,0.001-0.156,0-0.236
				c-0.002-0.024-0.007-0.046-0.008-0.07c0.003-0.002,0.005-0.004,0.008-0.006c-0.043-2.799,0.638-5.265,1.898-7.372
				c0.311-1.161,0.755-2.266,1.326-3.242C244.497,177.381,280.908,184.851,278.017,203.965z"/>
		</g>
	</g>
	<g>
		<g>
			<path d="M374.327,178.454c-3.023-23.437-17.219-43.843-36.326-57.226c-34.759-24.348-83.243-23.875-122.153-10.551
				c-20.751,7.105-38.243,19.514-53.134,35.465c-12.91,13.828-23.436,31.222-24.602,50.316c-0.688,0.923-1.1,2.11-1.049,3.556
				c0.26,7.393,3.491,14.656,6.353,21.353c3.548,8.304,7.446,16.473,11.336,24.62c4.839,10.133,9.776,20.218,14.572,30.373
				c4.714,9.981,10.683,19.217,16.766,28.409c12.137,18.336,22.901,37.443,34.493,56.116c11.361,18.3,25.531,34.43,37.839,52.053
				c2.785,3.986,7.897,2.463,9.697-0.767c0.762-0.435,1.459-1.06,2.025-1.916c17.223-26.012,30.154-54.347,42.991-82.689
				c6.18-13.643,12.18-27.462,19.322-40.638c6.35-11.716,13.678-22.881,20.451-34.351
				C366.156,230.146,377.772,205.166,374.327,178.454z M363.536,194.618c-1.609,18.041-10.159,34.688-19.036,50.141
				c-9.003,15.67-19.177,30.633-27.083,46.917c-17.702,36.459-32.41,74.404-54.191,108.708
				c-10.435-14.192-21.822-27.648-31.302-42.542c-11.491-18.053-21.658-36.896-33.471-54.749
				c-5.746-8.682-11.526-17.33-16.579-26.442c-5.49-9.9-9.9-20.596-14.81-30.802c-4.057-8.432-8.028-16.904-11.847-25.447
				c-2.229-4.985-4.936-10.444-6.222-15.986c0.22-0.653,0.33-1.386,0.285-2.205c-1.463-26.579,19.762-49.161,39.115-64.56
				c21.186-16.858,49.89-23.542,76.432-24.451c25.114-0.86,50.041,4.189,70.261,19.763
				C354.045,147.564,365.69,170.47,363.536,194.618z"/>
		</g>
	</g>
</g>
</svg>
