<?xml version="1.0" encoding="utf-8"?>
<!-- Generator: Adobe Illustrator 16.0.3, SVG Export Plug-In . SVG Version: 6.00 Build 0)  -->
<!DOCTYPE svg PUBLIC "-//W3C//DTD SVG 1.1//EN" "http://www.w3.org/Graphics/SVG/1.1/DTD/svg11.dtd">
<svg version="1.1" id="Layer_1" xmlns="http://www.w3.org/2000/svg" xmlns:xlink="http://www.w3.org/1999/xlink" x="0px" y="0px"
	 width="512px" height="512px" viewBox="0 0 512 512" style="enable-background:new 0 0 512 512;" xml:space="preserve">
<style type="text/css">
<![CDATA[
	.st0{fill:#14B6B9;}
	.st1{fill:#4B7BB2;}
	.st2{fill:#1E4384;}
	.st3{fill:#ED488B;}
	.st4{fill:#EF4754;}
	.st5{fill:#EF4823;}
	.st6{fill:#8A4581;}
	.st7{fill:#BCBCBC;}
	.st8{fill:#F26322;}
	.st9{fill:#F6851F;}
	.st10{fill:#283D5B;}
	.st11{fill:#C56528;}
	.st12{fill:#2B8C5E;}
	.st13{fill:#FCBF95;}
	.st14{fill:#FEBF10;}
	.st15{fill:none;}
	.st16{fill:#CAD7D6;}
	.st17{fill:#CBDB2D;}
	.st18{fill:#373837;}
	.st19{fill:#D03827;}
	.st20{fill:#3AB37C;}
	.st21{fill:#D6E5E5;}
	.st22{fill:#71C598;}
]]>
</style>
<g>
	<g>
		<g>
			<path class="st7" d="M469.869,164.187c-16.125-46.552-46.66-87.148-91.268-109.607c-50.949-25.65-110.953-28.072-166.416-19.262
				c-49.779,7.906-102.279,25.918-139.578,61.098c-19.578,18.467-34.738,40.916-42.662,66.768
				c-7.961,25.975-10.365,53.114-12.104,80.102c-0.072,1.145-0.426,2.039-0.953,2.711c0.031,0.247,0.051,0.502,0.051,0.772
				c0,52.927-1.062,108.335,30.076,153.938c25.32,37.082,64.48,61.467,107.197,73.711c88,25.225,194.16,9.605,264.924-50.809
				C493.244,360.337,500.053,251.323,469.869,164.187z M433.427,159.829c-1.496,0.063-2.993,0.104-4.491,0.143
				c-0.657,0.543-1.47,0.961-2.456,1.18c-11.317,2.51-19.713,10.327-26.424,19.389c-0.245,0.331-0.53,0.603-0.832,0.848
				c-0.043,0.066-0.074,0.132-0.12,0.197c-3.809,5.257-4.71,12.652-6.076,18.835c-1.736,7.86-4.487,14.867-7.276,22.392
				c-3.505,9.453-6.372,19.152-10.16,28.5c-3.786,9.347-8.116,18.386-12.796,27.317c-4.568,8.72-9.459,17.428-13.337,26.481
				c-3.715,8.674-6.618,17.637-9.363,26.657c-1.986,6.53-4.538,12.694-7.409,18.781c-0.008,0.327-0.037,0.666-0.106,1.021
				c-2.094,10.817-5.641,21.457-11.701,30.711c-1.464,2.237-3.032,4.46-4.124,6.912c-0.964,2.163-1.481,4.626-2.653,6.683
				c-1.602,2.808-3.5,5.523-6.76,6.498c-10.15,3.037-14.18-11.078-16.539-18.053c-0.126-0.373-0.243-0.75-0.367-1.123
				c-2.665-6.706-5.25-13.49-7.223-20.42c-6.504-13.813-10.303-28.985-16.294-43.007c-1.787-4.183-3.545-8.38-5.271-12.589
				c-0.303,0.677-0.61,1.353-0.902,2.034c-3.716,8.674-6.618,17.637-9.363,26.657c-2.823,9.279-6.772,17.823-11.186,26.451
				c-3.008,5.883-9.406,11.838-9.597,18.681c-0.032,1.137-0.348,2.037-0.84,2.737c-1.068,7.527-8.025,13.383-12.133,19.385
				c-4.158,6.075-10.878,13.145-18.761,8.5c-8.131-4.792-9.666-16.356-13.222-24.309c-2.806-6.273-5.216-12.647-6.066-19.264
				c-7.483-14.634-11.395-31.064-17.845-46.164c-7.274-17.027-14.079-34.265-20.103-51.776
				c-5.955-17.306-10.865-34.932-17.23-52.102c-5.308-14.317-11.091-28.445-16.896-42.566c-6.215-5.903-13.313-10.325-22.138-9.361
				c-1.548-0.532-3.235-0.502-4.989-0.267c-0.363-0.205-0.693-0.452-0.982-0.741c-4.562-0.107-9.126-0.117-13.693,0.066
				c-7.047,0.282-8.435-10.636-1.353-10.919c20.061-0.802,40.079,2.243,60.121,1.222c15.562-0.792,31.862-3.722,46.984,1.387
				c5.553,1.876,3.452,9.073-1.216,10.233c-0.957-0.036-1.914-0.059-2.871-0.064c-0.116-0.032-0.23-0.059-0.347-0.099
				c-2.409-0.813-4.879-1.363-7.388-1.725c-0.522,0.313-1.119,0.557-1.799,0.707c-4.104,0.9-12.315,2.096-14.438,6.481
				c-1.23,2.54-0.91,4.729-0.894,7.47c0.006,0.87-0.013,1.751-0.008,2.63c7.301,15.466,12.945,31.921,19.079,47.737
				c8.444,21.77,16.931,43.529,24.79,65.518c3.733,10.445,7.451,20.677,12.04,30.791c2.228,4.911,4.488,9.83,6.347,14.896
				c0.894,2.434,2.675,5.834,2.683,8.807c1.369,2.422,2.85,4.798,4.068,7.207c3.301,5.87,6.141,11.933,7.177,18.888
				c0.265,0.804,0.528,1.61,0.792,2.417c0.102-0.224,0.214-0.436,0.345-0.629c0.84-7.655,6.933-13.577,10.312-20.206
				c4.403-8.639,8.348-17.171,11.186-26.452c2.92-9.554,5.89-19.184,10.081-28.274c1.514-3.284,3.111-6.532,4.751-9.761
				c-3.271-8.41-6.394-16.877-9.33-25.41c-5.954-17.306-10.864-34.932-17.23-52.101c-5.308-14.317-11.091-28.446-16.896-42.566
				c-6.583-6.254-14.157-10.854-23.729-9.138c-0.176,0.032-0.345,0.048-0.513,0.064c-0.214-4.016-0.566-8.027-0.866-12.042
				c14.028,0.556,28.045,1.83,42.073,1.116c13.591-0.692,27.747-3.013,41.188-0.186c-0.251,3.765-0.208,7.522,0.136,11.264
				c-2.019-0.604-4.074-1.045-6.16-1.346c-0.522,0.313-1.119,0.557-1.799,0.707c-4.104,0.9-12.315,2.097-14.438,6.481
				c-1.229,2.54-0.911,4.73-0.893,7.47c0.006,0.87-0.013,1.751-0.008,2.631c7.301,15.466,12.945,31.92,19.079,47.737
				c3.154,8.134,6.315,16.266,9.447,24.409c0.682-1.683,1.349-3.373,1.98-5.077c3.505-9.453,6.371-19.152,10.159-28.5
				c2.874-7.095,4.545-13.977,6.291-21.416c1.475-6.286,3.071-12.671,6.75-18.057c-0.058-0.138-0.088-0.286-0.136-0.428
				c0.958-2.622,1.104-5.405-0.272-8.225c-0.635-1.301-1.5-2.306-2.532-3.086c-0.14-0.12-0.286-0.22-0.438-0.303
				c-1.642-1.096-3.651-1.698-5.816-2.049c-0.149-0.177-0.287-0.363-0.413-0.557c-0.851,0.058-1.7,0.139-2.55,0.211
				c-4.552-0.367-9.336-0.189-12.581-1.524c-0.407-0.167-0.799-0.215-1.168-0.187c-1.645-3.049-0.581-7.715,3.901-8.32
				c21.224-2.867,42.652-1.06,63.978-1.959c7.049-0.297,8.436,10.621,1.353,10.919c-1.497,0.063-2.993,0.103-4.491,0.142
				c-0.657,0.543-1.47,0.962-2.456,1.18c-11.317,2.51-19.713,10.327-26.423,19.389c-0.245,0.331-0.53,0.603-0.832,0.849
				c-0.044,0.065-0.074,0.131-0.121,0.197c-3.808,5.257-4.709,12.652-6.075,18.835c-1.735,7.861-4.486,14.867-7.276,22.392
				c-3.505,9.454-6.371,19.152-10.159,28.5c-1.601,3.951-3.316,7.837-5.097,11.692c3.328,8.804,6.601,17.629,9.768,26.492
				c3.734,10.446,7.452,20.677,12.041,30.791c2.228,4.911,4.488,9.831,6.347,14.897c0.867,2.364,2.588,5.645,2.692,8.556
				c1.226,2.42,2.607,4.767,3.707,7.222c0.409,0.384,0.765,0.82,1.049,1.293c0.52-0.85,1.013-1.706,1.455-2.574
				c4.404-8.639,8.348-17.171,11.186-26.452c2.921-9.555,5.89-19.184,10.081-28.274c4.151-9.003,8.921-17.742,13.493-26.538
				c4.937-9.499,9.576-19.164,13.301-29.211c3.505-9.454,6.372-19.152,10.159-28.5c2.875-7.095,4.545-13.977,6.291-21.416
				c1.475-6.285,3.07-12.671,6.75-18.056c-0.09-0.216-0.146-0.445-0.213-0.67c1.556-3.918,1.452-8.208-2.069-11.485
				c-4.839-4.503-13.165-2.038-19.294-1.344c-6.222-0.081-7.127-10.065-0.431-10.969c21.225-2.867,42.652-1.06,63.978-1.959
				C439.123,148.613,440.509,159.531,433.427,159.829z"/>
		</g>
	</g>
	<g>
		<g>
			<path d="M483.537,171.122c-14.17-46.857-40.941-88.285-82.014-115.738C355.164,24.398,296.248,16.937,241.74,20.937
				c-51.699,3.795-104.629,17.898-148.596,45.979C71.543,80.71,52.266,98.813,38.178,120.296
				c-14.859,22.66-22.512,48.775-26.58,75.363c-2.311,15.085-3.439,30.333-4.418,45.553c-0.062,0.949,0.094,1.805,0.398,2.563
				c-0.889,0.938-1.473,2.218-1.473,3.828c0,30.126-0.645,60.399,4.645,90.183c4.822,27.145,15.229,52.928,31.631,75.148
				c29.15,39.498,73.502,63.312,120.389,74.99c88.939,22.154,194.244,3.654,264.5-57.08
				C501.248,366.892,510.428,260.058,483.537,171.122z M419.137,423.608c-70.764,60.414-176.924,76.033-264.924,50.809
				c-42.717-12.244-81.877-36.629-107.197-73.711c-31.139-45.604-30.076-101.012-30.076-153.938c0-0.271-0.02-0.525-0.051-0.772
				c0.527-0.672,0.881-1.566,0.953-2.711c1.738-26.987,4.143-54.127,12.104-80.102c7.924-25.852,23.084-48.301,42.662-66.768
				c37.299-35.18,89.799-53.191,139.578-61.098c55.463-8.811,115.467-6.389,166.416,19.262
				c44.607,22.459,75.143,63.056,91.268,109.607C500.053,251.323,493.244,360.337,419.137,423.608z"/>
		</g>
	</g>
	<g>
		<g>
			<path d="M256.146,293.405c-1.64,3.229-3.237,6.477-4.751,9.761c-4.191,9.09-7.161,18.72-10.081,28.274
				c-2.838,9.28-6.782,17.813-11.186,26.452c-3.379,6.629-9.473,12.551-10.312,20.206c-0.13,0.193-0.243,0.405-0.345,0.629
				c-0.264-0.807-0.527-1.613-0.792-2.417c-1.036-6.955-3.876-13.018-7.177-18.888c-1.218-2.409-2.7-4.785-4.068-7.207
				c-0.007-2.973-1.789-6.373-2.683-8.807c-1.859-5.066-4.119-9.986-6.347-14.896c-4.589-10.114-8.307-20.345-12.04-30.791
				c-7.859-21.989-16.346-43.748-24.79-65.518c-6.134-15.816-11.778-32.271-19.079-47.737c-0.005-0.879,0.014-1.761,0.008-2.63
				c-0.017-2.74-0.336-4.93,0.894-7.47c2.122-4.385,10.333-5.581,14.438-6.481c0.68-0.149,1.277-0.394,1.799-0.707
				c2.509,0.362,4.979,0.912,7.388,1.725c0.117,0.04,0.231,0.067,0.347,0.099c0.957,0.005,1.914,0.028,2.871,0.064
				c4.668-1.16,6.769-8.357,1.216-10.233c-15.122-5.109-31.423-2.179-46.984-1.387c-20.042,1.021-40.06-2.024-60.121-1.222
				c-7.083,0.283-5.695,11.201,1.353,10.919c4.567-0.183,9.131-0.173,13.693-0.066c0.289,0.29,0.619,0.537,0.982,0.741
				c1.754-0.235,3.441-0.265,4.989,0.267c8.825-0.964,15.923,3.458,22.138,9.361c5.804,14.121,11.588,28.25,16.896,42.566
				c6.365,17.169,11.275,34.795,17.23,52.102c6.024,17.511,12.829,34.75,20.103,51.776c6.451,15.1,10.362,31.529,17.845,46.164
				c0.851,6.616,3.261,12.99,6.066,19.264c3.556,7.953,5.091,19.518,13.222,24.309c7.883,4.645,14.603-2.424,18.761-8.5
				c4.107-6.002,11.064-11.858,12.133-19.385c0.492-0.7,0.809-1.6,0.84-2.737c0.191-6.843,6.589-12.798,9.597-18.681
				c4.413-8.628,8.362-17.172,11.186-26.451c2.745-9.021,5.647-17.983,9.363-26.657c0.292-0.681,0.6-1.356,0.902-2.034
				C259.773,302.606,257.938,298.014,256.146,293.405z"/>
		</g>
	</g>
	<g>
		<g>
			<path d="M343.36,153.016c-21.326,0.899-42.754-0.907-63.978,1.959c-4.482,0.605-5.546,5.271-3.901,8.32
				c0.369-0.028,0.761,0.02,1.168,0.187c3.245,1.335,8.029,1.158,12.581,1.524c0.85-0.072,1.699-0.153,2.55-0.211
				c0.126,0.194,0.264,0.38,0.413,0.557c2.165,0.352,4.175,0.953,5.816,2.049c0.152,0.083,0.299,0.184,0.438,0.303
				c1.032,0.78,1.897,1.785,2.532,3.086c1.376,2.82,1.23,5.603,0.272,8.225c0.048,0.142,0.078,0.291,0.136,0.428
				c-3.679,5.385-5.274,11.771-6.75,18.057c-1.746,7.438-3.417,14.321-6.291,21.416c-3.788,9.348-6.654,19.047-10.159,28.5
				c-0.632,1.704-1.299,3.394-1.98,5.077c1.872,4.867,3.73,9.739,5.574,14.617c1.78-3.855,3.496-7.742,5.097-11.692
				c3.788-9.348,6.654-19.046,10.159-28.5c2.79-7.525,5.541-14.531,7.276-22.392c1.366-6.183,2.268-13.578,6.075-18.835
				c0.047-0.065,0.077-0.131,0.121-0.197c0.302-0.246,0.587-0.518,0.832-0.849c6.71-9.062,15.106-16.878,26.423-19.389
				c0.986-0.218,1.798-0.637,2.456-1.18c1.498-0.039,2.994-0.079,4.491-0.142C351.796,163.636,350.409,152.718,343.36,153.016z"/>
		</g>
	</g>
	<g>
		<g>
			<path d="M266.762,228.084c-6.134-15.817-11.778-32.271-19.079-47.737c-0.005-0.88,0.014-1.761,0.008-2.631
				c-0.018-2.74-0.336-4.93,0.893-7.47c2.123-4.384,10.333-5.581,14.438-6.481c0.68-0.149,1.276-0.394,1.799-0.707
				c2.086,0.301,4.142,0.742,6.16,1.346c-0.343-3.742-0.387-7.499-0.136-11.264c-13.441-2.827-27.597-0.506-41.188,0.186
				c-14.028,0.714-28.045-0.56-42.073-1.116c0.299,4.015,0.652,8.026,0.866,12.042c0.168-0.016,0.337-0.032,0.513-0.064
				c9.571-1.716,17.146,2.884,23.729,9.138c5.805,14.121,11.588,28.25,16.896,42.566c6.366,17.169,11.276,34.795,17.23,52.101
				c2.937,8.533,6.06,17,9.33,25.41c2.854-5.624,5.838-11.188,8.742-16.776c4.099-7.888,7.984-15.894,11.32-24.135
				C273.077,244.351,269.916,236.218,266.762,228.084z"/>
		</g>
	</g>
	<g>
		<g>
			<path d="M432.073,148.911c-21.325,0.899-42.753-0.907-63.978,1.959c-6.696,0.904-5.791,10.889,0.431,10.969
				c6.129-0.693,14.455-3.159,19.294,1.344c3.521,3.277,3.625,7.567,2.069,11.485c0.067,0.225,0.123,0.454,0.213,0.67
				c-3.679,5.385-5.275,11.771-6.75,18.056c-1.746,7.439-3.417,14.321-6.291,21.416c-3.788,9.348-6.654,19.046-10.159,28.5
				c-3.725,10.047-8.364,19.712-13.301,29.211c-4.572,8.796-9.342,17.534-13.493,26.538c-4.191,9.09-7.16,18.719-10.081,28.274
				c-2.838,9.28-6.781,17.813-11.186,26.452c-0.442,0.869-0.936,1.724-1.455,2.574c-0.284-0.474-0.641-0.91-1.049-1.293
				c-1.099-2.455-2.481-4.801-3.707-7.222c-0.104-2.911-1.825-6.191-2.692-8.556c-1.859-5.066-4.119-9.986-6.347-14.897
				c-4.589-10.114-8.307-20.345-12.041-30.791c-3.167-8.863-6.439-17.688-9.768-26.492c-2.432,5.267-4.998,10.468-7.699,15.625
				c-4.225,8.064-8.715,16.121-12.435,24.448c1.726,4.209,3.483,8.406,5.271,12.589c5.991,14.022,9.79,29.193,16.294,43.007
				c1.973,6.93,4.559,13.714,7.223,20.42c0.124,0.374,0.241,0.75,0.367,1.123c2.359,6.975,6.389,21.09,16.539,18.053
				c3.26-0.975,5.158-3.69,6.76-6.498c1.172-2.057,1.689-4.52,2.653-6.683c1.092-2.452,2.66-4.675,4.124-6.912
				c6.06-9.254,9.607-19.894,11.701-30.711c0.069-0.355,0.099-0.694,0.106-1.021c2.871-6.087,5.423-12.251,7.409-18.781
				c2.745-9.02,5.648-17.983,9.363-26.657c3.878-9.053,8.769-17.761,13.337-26.481c4.68-8.931,9.01-17.97,12.796-27.317
				c3.788-9.348,6.654-19.047,10.16-28.5c2.79-7.525,5.541-14.532,7.276-22.392c1.366-6.183,2.267-13.578,6.076-18.835
				c0.046-0.065,0.077-0.131,0.12-0.197c0.302-0.246,0.587-0.518,0.832-0.848c6.71-9.062,15.106-16.878,26.424-19.389
				c0.986-0.219,1.798-0.637,2.456-1.18c1.498-0.039,2.995-0.079,4.491-0.143C440.509,159.531,439.123,148.613,432.073,148.911z"/>
		</g>
	</g>
	<g>
		<g>
			<path d="M276.209,252.494c-3.336,8.241-7.221,16.247-11.32,24.135c-2.904,5.588-5.888,11.153-8.742,16.776
				c1.792,4.609,3.627,9.202,5.503,13.778c3.72-8.327,8.21-16.384,12.435-24.448c2.702-5.156,5.268-10.358,7.699-15.625
				C279.939,262.232,278.081,257.361,276.209,252.494z"/>
		</g>
	</g>
</g>
</svg>
