<?xml version="1.0" encoding="utf-8"?>
<!-- Generator: Adobe Illustrator 16.0.3, SVG Export Plug-In . SVG Version: 6.00 Build 0)  -->
<!DOCTYPE svg PUBLIC "-//W3C//DTD SVG 1.1//EN" "http://www.w3.org/Graphics/SVG/1.1/DTD/svg11.dtd">
<svg version="1.1" id="Layer_1" xmlns="http://www.w3.org/2000/svg" xmlns:xlink="http://www.w3.org/1999/xlink" x="0px" y="0px"
	 width="512px" height="512px" viewBox="0 0 512 512" style="enable-background:new 0 0 512 512;" xml:space="preserve">
<style type="text/css">
<![CDATA[
	.st0{fill:#14B6B9;}
	.st1{fill:#4B7BB2;}
	.st2{fill:#1E4384;}
	.st3{fill:#ED488B;}
	.st4{fill:#EF4754;}
	.st5{fill:#EF4823;}
	.st6{fill:#8A4581;}
	.st7{fill:#BCBCBC;}
	.st8{fill:#F26322;}
	.st9{fill:#F6851F;}
	.st10{fill:#283D5B;}
	.st11{fill:#C56528;}
	.st12{fill:#2B8C5E;}
	.st13{fill:#FCBF95;}
	.st14{fill:#FEBF10;}
	.st15{fill:none;}
	.st16{fill:#CAD7D6;}
	.st17{fill:#CBDB2D;}
	.st18{fill:#373837;}
	.st19{fill:#D03827;}
	.st20{fill:#3AB37C;}
	.st21{fill:#D6E5E5;}
	.st22{fill:#71C598;}
]]>
</style>
<g>
	<g>
		<g>
			<rect x="65.01" y="149.284" class="st14" width="294.12" height="225"/>
		</g>
	</g>
	<g>
		<g>
			<path class="st21" d="M71.761,282.192c-6.602,8.435-9.011,21.17-4.279,31.131c1.947,4.097,5.041,7.326,8.648,10.032v-45.796
				C74.559,278.956,73.092,280.492,71.761,282.192z"/>
		</g>
	</g>
	<g>
		<g>
			<path class="st21" d="M101.685,265.766c-3.552,0.805-7.113,1.808-10.555,3.096v63.004c0.076,0.038,0.154,0.076,0.23,0.114
				c0.332-0.059,0.682-0.096,1.059-0.096c4.904-0.001,9.808-0.025,14.711-0.043v-67.313
				C105.342,264.947,103.526,265.349,101.685,265.766z"/>
		</g>
	</g>
	<g>
		<g>
			<path class="st21" d="M130.274,253.021c-2.801,3.005-5.871,5.167-9.145,6.827v71.924c6.667-0.044,13.334-0.102,20-0.172v-93.887
				C137.894,243.161,134.509,248.479,130.274,253.021z"/>
		</g>
	</g>
	<g>
		<g>
			<path class="st21" d="M155.13,216.56v114.871c6.334-0.081,12.667-0.188,19-0.287v-128.67
				C167.005,205.977,160.584,210.44,155.13,216.56z"/>
		</g>
	</g>
	<g>
		<g>
			<path class="st21" d="M187.188,197.214c-0.02,0.006-0.039,0.014-0.059,0.02v133.711c5.667-0.098,11.334-0.207,17-0.315V193.498
				C198.506,194.116,192.898,195.313,187.188,197.214z"/>
		</g>
	</g>
	<g>
		<g>
			<path class="st21" d="M228.743,194.15c-2.57-0.371-5.104-0.655-7.613-0.852v136.995c8-0.165,16-0.341,24-0.517V195.714
				C239.772,195.568,234.351,194.959,228.743,194.15z"/>
		</g>
	</g>
	<g>
		<g>
			<path class="st21" d="M269.354,192.192c-6.164,2.176-12.182,3.192-18.225,3.472v133.981c9.764-0.218,19.527-0.442,29.291-0.669
				c0.902-0.021,1.806-0.053,2.709-0.078V186.332C278.595,188.428,274.058,190.532,269.354,192.192z"/>
		</g>
	</g>
	<g>
		<g>
			<path class="st21" d="M453.824,272.244c-10.179-14.915-31.865-18.617-48.575-16.386c-2.736,0.366-6.001-2.177-5.908-5.062
				c0.85-26.349-12.822-50.557-35.99-63.349c-14.366-7.932-31.444-11.905-47.866-10.623c-8.709,0.68-16.939,2.756-24.97,6.183
				c-1.805,0.771-3.597,1.58-5.385,2.401V328.84c14.513-0.464,29.029-1.463,43.526-2.206c15.376-0.789,30.959-2.379,46.354-2.242
				c19.399,0.172,40.882,2.273,59.135-5.716C449.892,311.783,465.14,288.825,453.824,272.244z"/>
		</g>
	</g>
	<g>
		<g>
			<path class="st14" d="M479.287,176.77c-16.125-46.552-46.66-87.148-91.268-109.607C337.07,41.512,277.066,39.09,221.604,47.9
				c-49.779,7.906-102.279,25.918-139.578,61.098c-19.578,18.467-34.738,40.916-42.662,66.768
				c-7.961,25.975-10.365,53.114-12.104,80.102c-0.072,1.145-0.426,2.039-0.953,2.711c0.031,0.247,0.051,0.502,0.051,0.772
				c0,52.927-1.062,108.335,30.076,153.938c25.32,37.082,64.48,61.467,107.197,73.711c88,25.225,194.16,9.605,264.924-50.809
				C502.662,372.92,509.471,263.906,479.287,176.77z M440.949,327.572c-18.288,9.01-39.75,8.173-59.598,7.848
				c-14.099-0.231-28.229,0.959-42.308,1.681c-15.979,0.818-31.958,1.643-47.938,2.445c-32.896,1.654-65.957,1.714-98.889,2.303
				c-32.981,0.59-65.966,0.982-98.953,0.99c-0.621,0-1.192-0.089-1.717-0.244c-1.215,0.455-2.641,0.443-4.153-0.313
				c-14.278-7.144-29.826-15.745-32.528-33.083c-2.605-16.71,3.669-32.491,17.346-42.567c7.292-5.372,15.652-8.954,24.467-10.952
				c7.038-1.595,15.482-2.25,21.519-6.565c7.405-5.295,11.637-14.856,16.341-22.418c5.096-8.193,10.489-16.473,17.676-23.015
				c20.103-18.299,50.699-24.375,76.913-20.591c7.272,1.05,14.737,2.527,22.117,1.922c6.663-0.546,12.875-2.393,19.014-5.002
				c13.304-5.655,25.937-12.33,40.572-13.827c26.184-2.679,54.382,5.044,73.854,23.218c15.496,14.462,24.776,33.917,25.601,54.939
				c19.671-0.985,43.986,5.487,53.695,23.438C475.774,289.583,461.874,317.264,440.949,327.572z"/>
		</g>
	</g>
	<g>
		<g>
			<path d="M492.955,183.705c-14.17-46.857-40.941-88.285-82.014-115.738C364.582,36.981,305.666,29.52,251.158,33.52
				c-51.699,3.795-104.629,17.898-148.596,45.979c-21.602,13.795-40.879,31.898-54.967,53.381
				c-14.859,22.66-22.512,48.775-26.58,75.363c-2.311,15.085-3.439,30.333-4.418,45.553c-0.062,0.949,0.094,1.805,0.398,2.563
				c-0.889,0.938-1.473,2.218-1.473,3.828c0,30.126-0.645,60.399,4.645,90.183c4.822,27.145,15.229,52.928,31.631,75.148
				c29.15,39.498,73.502,63.312,120.389,74.99c88.939,22.154,194.244,3.654,264.5-57.08
				C510.666,379.475,519.846,272.641,492.955,183.705z M428.555,436.191C357.791,496.605,251.631,512.225,163.631,487
				c-42.717-12.244-81.877-36.629-107.197-73.711c-31.139-45.604-30.076-101.012-30.076-153.938c0-0.271-0.02-0.525-0.051-0.772
				c0.527-0.672,0.881-1.566,0.953-2.711c1.738-26.987,4.143-54.127,12.104-80.102c7.924-25.852,23.084-48.301,42.662-66.768
				c37.299-35.18,89.799-53.191,139.578-61.098c55.463-8.811,115.467-6.389,166.416,19.262
				c44.607,22.459,75.143,63.056,91.268,109.607C509.471,263.906,502.662,372.92,428.555,436.191z"/>
		</g>
	</g>
	<g>
		<g>
			<path d="M96.679,255.679c-1.874,0.425-3.722,0.937-5.549,1.507v11.662c3.441-1.288,7.003-2.291,10.555-3.096
				c1.842-0.417,3.657-0.819,5.445-1.239v-10.939C103.599,254.385,99.984,254.93,96.679,255.679z"/>
		</g>
	</g>
	<g>
		<g>
			<path d="M134.538,226.696c-4.045,6.502-7.745,14.474-13.408,19.949v13.189c3.273-1.661,6.344-3.822,9.145-6.828
				c4.234-4.542,7.619-9.86,10.855-15.308V216.62C138.814,219.91,136.646,223.307,134.538,226.696z"/>
		</g>
	</g>
	<g>
		<g>
			<path d="M121.13,331.758v10.98c6.667-0.042,13.334-0.101,20-0.167v-10.984C134.464,331.656,127.797,331.714,121.13,331.758z"/>
		</g>
	</g>
	<g>
		<g>
			<path d="M155.13,201.186v15.36c5.454-6.12,11.875-10.583,19-14.086v-12.604C167.274,192.774,160.842,196.533,155.13,201.186z"/>
		</g>
	</g>
	<g>
		<g>
			<path d="M187.13,330.932v10.995c1.695-0.029,3.393-0.047,5.088-0.078c3.969-0.071,7.939-0.134,11.912-0.193v-11.04
				C198.464,330.725,192.797,330.834,187.13,330.932z"/>
		</g>
	</g>
	<g>
		<g>
			<path d="M187.13,185.436v11.784c0.02-0.006,0.039-0.014,0.059-0.02c5.71-1.901,11.317-3.098,16.941-3.716V182.48
				C198.41,183.003,192.699,183.977,187.13,185.436z"/>
		</g>
	</g>
	<g>
		<g>
			<path d="M229.127,183.09c-2.626-0.379-5.298-0.656-7.997-0.834v11.027c2.509,0.197,5.043,0.481,7.613,0.852
				c5.607,0.809,11.029,1.418,16.387,1.564v-10.619C239.765,184.826,234.396,183.851,229.127,183.09z"/>
		</g>
	</g>
	<g>
		<g>
			<path d="M221.13,330.278v11.135c7.999-0.112,16-0.231,24-0.384v-11.268C237.13,329.938,229.13,330.113,221.13,330.278z"/>
		</g>
	</g>
	<g>
		<g>
			<path d="M270.258,180.01c-6.139,2.609-12.351,4.457-19.014,5.002c-0.038,0.003-0.076,0.002-0.114,0.005v10.632
				c6.043-0.281,12.061-1.296,18.225-3.472c4.703-1.66,9.24-3.765,13.775-5.861v-11.938
				C278.849,176.222,274.589,178.169,270.258,180.01z"/>
		</g>
	</g>
	<g>
		<g>
			<path d="M280.421,328.962c-9.764,0.227-19.527,0.451-29.291,0.669v11.274c10.676-0.23,21.345-0.542,32-0.997v-11.025
				C282.227,328.909,281.323,328.941,280.421,328.962z"/>
		</g>
	</g>
	<g>
		<g>
			<path d="M463.98,267.778c-9.709-17.95-34.024-24.423-53.695-23.438c-0.824-21.022-10.104-40.477-25.601-54.939
				c-19.473-18.173-47.671-25.896-73.854-23.218c-9.13,0.934-17.479,3.883-25.7,7.342v11.869c1.788-0.821,3.58-1.631,5.385-2.401
				c8.03-3.427,16.261-5.503,24.97-6.183c16.422-1.282,33.5,2.691,47.866,10.623c23.168,12.792,36.84,37,35.99,63.349
				c-0.093,2.884,3.172,5.427,5.908,5.062c16.71-2.23,38.396,1.472,48.575,16.386c11.315,16.582-3.933,39.54-19.68,46.432
				c-18.253,7.989-39.735,5.889-59.135,5.716c-15.395-0.137-30.978,1.454-46.354,2.242c-14.497,0.743-29.014,1.742-43.526,2.206
				v10.992c1.992-0.089,3.985-0.172,5.977-0.272c15.979-0.803,31.959-1.627,47.938-2.445c14.078-0.721,28.209-1.912,42.308-1.681
				c19.848,0.326,41.31,1.162,59.598-7.848C461.874,317.264,475.774,289.583,463.98,267.778z"/>
		</g>
	</g>
	<g>
		<g>
			<path d="M155.13,331.417v10.997c6.334-0.079,12.667-0.192,19-0.289V331.13C167.797,331.229,161.464,331.336,155.13,331.417z"/>
		</g>
	</g>
	<g>
		<g>
			<path d="M92.419,331.869c-0.377,0-0.727,0.037-1.059,0.096c-0.076-0.038-0.154-0.076-0.23-0.114v10.877
				c0.142-0.039,0.281-0.082,0.418-0.133c0.524,0.155,1.096,0.244,1.717,0.244c4.622-0.001,9.243-0.026,13.865-0.042v-10.971
				C102.227,331.844,97.323,331.868,92.419,331.869z"/>
		</g>
	</g>
	<g>
		<g>
			<path d="M76.13,277.544v-13.541c-1.333,0.829-2.646,1.691-3.918,2.627c-13.677,10.076-19.951,25.857-17.346,42.567
				c1.992,12.781,10.966,20.812,21.264,27.014v-12.871c-3.607-2.706-6.701-5.935-8.648-10.032
				c-4.731-9.96-2.322-22.696,4.279-31.131C73.092,280.478,74.559,278.942,76.13,277.544z"/>
		</g>
	</g>
</g>
</svg>
