<?xml version="1.0" encoding="utf-8"?>
<!-- Generator: Adobe Illustrator 16.0.3, SVG Export Plug-In . SVG Version: 6.00 Build 0)  -->
<!DOCTYPE svg PUBLIC "-//W3C//DTD SVG 1.1//EN" "http://www.w3.org/Graphics/SVG/1.1/DTD/svg11.dtd">
<svg version="1.1" id="Layer_1" xmlns="http://www.w3.org/2000/svg" xmlns:xlink="http://www.w3.org/1999/xlink" x="0px" y="0px"
	 width="512px" height="512px" viewBox="0 0 512 512" style="enable-background:new 0 0 512 512;" xml:space="preserve">
<style type="text/css">
<![CDATA[
	.st0{fill:#14B6B9;}
	.st1{fill:#4B7BB2;}
	.st2{fill:#1E4384;}
	.st3{fill:#ED488B;}
	.st4{fill:#EF4754;}
	.st5{fill:#EF4823;}
	.st6{fill:#8A4581;}
	.st7{fill:#BCBCBC;}
	.st8{fill:#F26322;}
	.st9{fill:#F6851F;}
	.st10{fill:#283D5B;}
	.st11{fill:#C56528;}
	.st12{fill:#2B8C5E;}
	.st13{fill:#FCBF95;}
	.st14{fill:#FEBF10;}
	.st15{fill:none;}
	.st16{fill:#CAD7D6;}
	.st17{fill:#CBDB2D;}
	.st18{fill:#373837;}
	.st19{fill:#D03827;}
	.st20{fill:#3AB37C;}
	.st21{fill:#D6E5E5;}
	.st22{fill:#71C598;}
]]>
</style>
<g>
	<g>
		<g>
			<path class="st4" d="M474.157,166.95c-16.125-46.552-46.66-87.148-91.268-109.607C331.94,31.692,271.937,29.27,216.474,38.081
				c-49.779,7.906-102.279,25.918-139.578,61.098c-19.578,18.467-34.738,40.916-42.662,66.768
				c-7.961,25.975-10.365,53.114-12.104,80.102c-0.072,1.145-0.426,2.039-0.953,2.711c0.031,0.246,0.051,0.502,0.051,0.771
				c0,52.928-1.062,108.336,30.076,153.939c25.32,37.082,64.48,61.467,107.197,73.711c88,25.225,194.16,9.605,264.924-50.809
				C497.532,363.101,504.341,254.087,474.157,166.95z M387.017,358.032c-6.092,1.464-12.471,2.143-18.924,2.174
				c-19.72,5.241-44.497-3.799-60.359-13.812c-12.498-7.891-22.355-17.045-28.07-30.914c-1.727-4.189-3.084-8.518-4.279-12.906
				c-0.082-0.209-0.174-0.414-0.254-0.624c-0.156-0.229-0.315-0.456-0.463-0.708c-5.662-9.65-9.857-19.993-13.447-30.566
				c-3.293-9.693-5.764-20.156-10.969-29.047c-6.696-11.437-15.701-21.15-23.959-31.428c-11.58-6.488-23.178-9.69-36.682-9.547
				c-13.772,0.146-27.696,0.773-41.243,3.417c-2.995,0.585-6.474,1.45-9.935,2.554c-4.63,3.421-8.99,7.254-12.938,11.415
				c-4.171,6.144-7.551,13.428-10.119,20.597c-5.146,14.368-8.249,31.936-2.197,47.13c6.172,15.497,20.352,27.835,36.26,32.633
				c22.715,6.851,45.905,2.838,67.216-6.69c2.536-1.134,5.351-0.769,7.729,0.493c1.973-1.143,4.265-1.605,6.485-0.87
				c7.741,2.563,12.622,7.56,13.722,15.88c0.387,2.92,0.75,6.441,0.186,9.345c-0.799,4.109-4.236,6.692-7.521,8.876
				c-21.224,14.107-48.952,14.374-73.367,11.204c-22.703-2.947-46.482-12.543-63.234-28.44
				c-17.103-16.229-26.745-38.215-25.666-61.914c0.912-20.048,7.838-38.913,19.488-55.205
				c21.201-29.646,58.248-50.085,95.121-48.301c17.16,0.83,33.821,6.271,47.585,16.52c0.974,0.563,1.944,1.13,2.895,1.734
				c21.452,13.654,38.383,34.55,46.806,58.654c7.678,21.971,9.385,47.35,23.278,66.708c8.489,11.828,20.109,19.614,33.239,22.451
				c2.615,0.339,5.218,0.568,7.751,0.729c2.168,0.138,4.441,0.273,6.766,0.371c2.308-0.132,4.639-0.397,6.989-0.82
				c4.817-0.865,9.804-2.435,14.446-4.662c6.38-4.446,10.527-10.229,11.783-17.455c1.192-6.861,0.146-15.473-3.474-21.982
				c-8.295-14.919-23.765-22.7-39.386-29.134c-4.307-1.21-8.704-2.462-13.087-4.046c-9.998-3.614-19.699-8.273-28.1-14.876
				c-1.197-0.94-2.363-1.941-3.502-2.986c-8.92-6.87-15.836-17.042-19.161-27.782c-6.695-21.624-1.938-49.475,18.485-62.461
				c17.599-11.19,44.232-9.383,62.311-0.142c7.889,4.033,13.983,9.79,18.356,17.159c5.69,6.609,8.536,15.602,6.691,27.307
				c-0.817,5.185-4.546,7.613-8.548,7.826c-0.923,0.691-1.958,1.218-3.082,1.499c-0.032,0.019-0.062,0.039-0.095,0.057
				c-5.501,3.059-14.081,1.021-15.379-5.693c-0.001-0.002-0.002-0.003-0.003-0.005c-3.038-5.97-6.422-12.071-11.086-16.933
				c-3.789-3.948-6.275-5.929-11.161-7.961c-1.205-0.501-1.817-0.778-2.747-1.039c-5.589,0.481-11.128,1.838-16.431,4.257
				c-0.227,0.103-0.382,0.171-0.508,0.226c-0.036,0.021-0.06,0.035-0.101,0.058c-0.451,0.248-0.895,0.507-1.332,0.776
				c-1.326,0.841-2.746,1.73-3.885,2.81c-2.932,2.781-5.385,5.493-7,9.046c-2.484,5.464-2.717,11.605-0.579,17.486
				c2.334,6.422,6.336,11.826,12.052,16.19c6.346,4.846,13.662,6.427,21.688,9.028c24.775,8.03,49.932,18.48,67.842,38.17
				c8.461,9.303,15.578,20.204,15.929,33.235c0.151,5.654-0.647,11.214-2.355,16.477
				C425.653,334.619,406.398,353.374,387.017,358.032z"/>
		</g>
	</g>
	<g>
		<g>
			<path d="M487.825,173.885c-14.17-46.857-40.941-88.285-82.014-115.738C359.452,27.162,300.536,19.7,246.028,23.7
				c-51.699,3.795-104.629,17.898-148.596,45.979c-21.602,13.795-40.879,31.898-54.967,53.381
				c-14.859,22.66-22.512,48.775-26.58,75.363c-2.311,15.085-3.439,30.333-4.418,45.553c-0.062,0.949,0.094,1.805,0.398,2.562
				c-0.889,0.938-1.473,2.219-1.473,3.828c0,30.127-0.645,60.4,4.645,90.184c4.822,27.145,15.229,52.928,31.631,75.148
				c29.15,39.498,73.502,63.312,120.389,74.99c88.939,22.154,194.244,3.654,264.5-57.08
				C505.536,369.655,514.716,262.821,487.825,173.885z M423.425,426.372c-70.764,60.414-176.924,76.033-264.924,50.809
				c-42.717-12.244-81.877-36.629-107.197-73.711C20.165,357.866,21.228,302.458,21.228,249.53c0-0.27-0.02-0.525-0.051-0.771
				c0.527-0.672,0.881-1.566,0.953-2.711c1.738-26.988,4.143-54.127,12.104-80.102c7.924-25.852,23.084-48.301,42.662-66.768
				c37.299-35.18,89.799-53.191,139.578-61.098c55.463-8.811,115.467-6.389,166.416,19.262
				c44.607,22.459,75.143,63.056,91.268,109.607C504.341,254.087,497.532,363.101,423.425,426.372z"/>
		</g>
	</g>
	<g>
		<g>
			<path class="st21" d="M425.844,297.096c-0.351-13.031-7.468-23.933-15.929-33.235c-17.91-19.689-43.066-30.14-67.842-38.17
				c-8.025-2.601-15.342-4.182-21.688-9.028c-5.716-4.365-9.718-9.769-12.052-16.19c-2.138-5.881-1.905-12.022,0.579-17.486
				c1.615-3.553,4.068-6.265,7-9.046c1.139-1.08,2.559-1.969,3.885-2.81c0.438-0.27,0.881-0.528,1.332-0.776
				c0.041-0.023,0.064-0.037,0.101-0.058c0.126-0.054,0.281-0.123,0.508-0.226c5.303-2.419,10.842-3.776,16.431-4.257
				c0.93,0.261,1.542,0.538,2.747,1.039c4.886,2.032,7.372,4.014,11.161,7.961c4.664,4.862,8.048,10.962,11.086,16.933
				c0.001,0.002,0.002,0.003,0.003,0.005c1.298,6.714,9.878,8.751,15.379,5.693c0.032-0.018,0.062-0.039,0.095-0.057
				c1.124-0.281,2.159-0.808,3.082-1.499c4.002-0.212,7.73-2.641,8.548-7.826c1.845-11.706-1.001-20.698-6.691-27.307
				c-4.373-7.369-10.468-13.126-18.356-17.159c-18.078-9.241-44.712-11.048-62.311,0.142
				c-20.424,12.986-25.181,40.837-18.485,62.461c3.325,10.74,10.241,20.913,19.161,27.782c1.139,1.044,2.305,2.045,3.502,2.986
				c8.4,6.603,18.102,11.262,28.1,14.876c4.383,1.584,8.78,2.836,13.087,4.046c15.621,6.434,31.091,14.215,39.386,29.134
				c3.619,6.51,4.666,15.121,3.474,21.982c-1.256,7.226-5.403,13.009-11.783,17.455c-4.643,2.228-9.629,3.797-14.446,4.662
				c-2.351,0.423-4.682,0.688-6.989,0.82c-2.324-0.098-4.598-0.233-6.766-0.371c-2.533-0.161-5.136-0.391-7.751-0.729
				c-13.13-2.837-24.75-10.623-33.239-22.451c-13.894-19.358-15.601-44.737-23.278-66.708c-8.423-24.104-25.354-45-46.806-58.654
				c-0.95-0.604-1.921-1.171-2.895-1.734c-13.764-10.249-30.425-15.689-47.585-16.52c-36.873-1.784-73.92,18.656-95.121,48.301
				c-11.65,16.292-18.576,35.157-19.488,55.205c-1.079,23.699,8.563,45.685,25.666,61.914c16.752,15.897,40.531,25.493,63.234,28.44
				c24.415,3.17,52.144,2.903,73.367-11.204c3.285-2.184,6.723-4.767,7.521-8.876c0.564-2.903,0.201-6.425-0.186-9.345
				c-1.1-8.32-5.98-13.316-13.722-15.88c-2.221-0.735-4.513-0.272-6.485,0.87c-2.379-1.262-5.193-1.627-7.729-0.493
				c-21.311,9.528-44.501,13.541-67.216,6.69c-15.908-4.798-30.088-17.136-36.26-32.633c-6.052-15.194-2.949-32.762,2.197-47.13
				c2.568-7.169,5.948-14.453,10.119-20.597c3.947-4.161,8.308-7.994,12.938-11.415c3.461-1.104,6.939-1.969,9.935-2.554
				c13.547-2.645,27.471-3.271,41.243-3.417c13.504-0.143,25.102,3.059,36.682,9.547c8.258,10.278,17.263,19.991,23.959,31.428
				c5.205,8.891,7.676,19.354,10.969,29.047c3.59,10.573,7.785,20.916,13.447,30.566c0.147,0.252,0.307,0.479,0.463,0.708
				c0.08,0.21,0.172,0.415,0.254,0.624c1.195,4.389,2.553,8.717,4.279,12.906c5.715,13.869,15.572,23.023,28.07,30.914
				c15.862,10.014,40.64,19.054,60.359,13.812c6.453-0.031,12.832-0.71,18.924-2.174c19.382-4.658,38.637-23.413,36.472-44.46
				C425.196,308.31,425.995,302.75,425.844,297.096z"/>
		</g>
	</g>
	<g>
		<g>
			<path d="M427.731,279.012c-6.199-12.001-16.449-22.859-26.137-32.111c-10.133-9.678-21.33-17.397-34.695-21.746
				c-12.277-3.994-27.313-4.669-37.913-12.63c-8.536-6.412-13.409-18.219-8.526-28.243c9.605-19.713,27.94-1.762,38.354,6.579
				c9.582,7.676,24.449,12.946,34.705,3.694c5.23-4.719,5.856-13.257,5.361-19.757c-0.65-8.55-5.064-16.039-10.61-22.318
				c-12.071-13.667-30.448-17.85-47.726-20.445c-1.051-1.008-2.528-1.604-3.93-1.459c-19.146,1.982-40.279,6.692-52.781,22.644
				c-13.334,17.015-12.159,42.962-3.002,61.585c9.425,19.166,27.979,30.926,47.379,38.301c16.27,6.185,33.374,13.732,46.021,25.989
				c5.492,5.322,9.665,12.391,8.405,20.253c-1.579,9.856-10.356,18.353-19.624,21.141c-19.311,5.812-40.533-12.72-49.758-27.775
				c-6.985-11.4-11.145-24.874-16.004-37.266c-4.919-12.542-10.338-24.915-17.672-36.257c-14.439-22.33-38.146-40.201-62.456-50.487
				c-22.705-9.606-47.106-11.177-70.763-4.305c-21.271,6.18-40.473,19.503-54.266,36.746c-28.137,35.169-28.537,85.091,0,120.015
				c17.394,21.288,42.812,35.629,69.736,40.656c28.224,5.269,55.553-1.915,78.479-18.499c2.332,0.248,4.865-0.893,5.598-3.801
				c2.437-9.673,4.544-21.471-5.479-27.686c-9.73-6.034-22.853-4.187-33.635-2.953c-20.21,2.312-42.473,5.534-61.598-3.359
				c-20.321-9.45-32.932-34.956-27.021-56.606c6.303-23.09,30.488-36.323,52.533-39.668c22.188-3.367,44.566,1.312,61.229,16.895
				c18.918,17.693,25.197,45.372,33.359,68.97c8.206,23.726,18.574,47.777,40.446,61.781c19.353,12.391,44.492,15.992,66.979,13.149
				c21.942-2.774,39.969-13.23,51.648-32.215C435.233,320.165,437.327,297.583,427.731,279.012z M401.484,349.001
				c-17.493,13.58-43.737,13.987-64.471,9.63c-11.181-2.35-22.075-6.886-31.221-13.783c-10.214-7.703-16.836-19.075-22.179-30.487
				c-11.387-24.32-16.383-51.181-29.178-74.908c-10.652-19.752-28.668-34.053-50.529-39.22c-22.121-5.229-47.7-1.257-67.052,10.562
				c-19.227,11.743-32.692,33.175-29.963,56.132c1.778,14.956,10.569,29.864,21.802,39.701c10.384,9.093,24.017,13.135,37.535,14.25
				c14.752,1.218,29.444-0.717,44.082-2.336c7.487-0.828,16.279-2.034,23.431,0.977c5.528,2.327,4.809,8.367,3.528,13.601
				c-17.795,13.619-37.812,21.136-60.383,20.398c-20.189-0.66-40.4-8.319-56.812-19.893c-16.534-11.662-29.64-27.983-35.954-47.307
				c-7.047-21.568-3.709-45.441,6.764-65.272c10.385-19.666,28.317-35.02,48.681-43.619c22.587-9.539,47.257-9.567,70.118-0.96
				c25.297,9.524,49.012,28.181,63.381,51.108c14.217,22.681,18.705,50.189,33.117,72.675
				c10.796,16.843,30.433,30.842,50.898,31.043c19.357,0.189,38.304-19.321,35.531-38.935c-2.539-17.966-21.145-29.588-35.73-37.358
				c-16.869-8.988-36.084-13.487-51.291-25.418c-17.682-13.874-26.795-39.114-19.013-60.823
				c7.099-19.801,28.929-25.615,47.879-27.882c0.501,0.302,1.039,0.515,1.588,0.594c13.033,1.867,26.388,3.907,37.507,11.465
				c9.414,6.398,16.59,16.402,15.344,28.228c-0.969,9.203-8.855,9.56-16.029,6.615c-9.625-3.951-16.828-12.806-25.666-18.221
				c-9.248-5.665-20.764-6.53-28.875,1.617c-8.301,8.338-11.479,18.094-8.77,29.656c6.5,27.737,38.85,27.446,60.195,35.876
				c13.306,5.255,24.51,16.261,33.98,26.667c8.239,9.054,16.447,19.331,19.34,31.44
				C427.808,314.639,417.013,336.947,401.484,349.001z"/>
		</g>
	</g>
</g>
</svg>
