<?xml version="1.0" encoding="utf-8"?>
<!-- Generator: Adobe Illustrator 16.0.3, SVG Export Plug-In . SVG Version: 6.00 Build 0)  -->
<!DOCTYPE svg PUBLIC "-//W3C//DTD SVG 1.1//EN" "http://www.w3.org/Graphics/SVG/1.1/DTD/svg11.dtd">
<svg version="1.1" id="Layer_1" xmlns="http://www.w3.org/2000/svg" xmlns:xlink="http://www.w3.org/1999/xlink" x="0px" y="0px"
	 width="512px" height="512px" viewBox="0 0 512 512" style="enable-background:new 0 0 512 512;" xml:space="preserve">
<style type="text/css">
<![CDATA[
	.st0{fill:#14B6B9;}
	.st1{fill:#4B7BB2;}
	.st2{fill:#1E4384;}
	.st3{fill:#ED488B;}
	.st4{fill:#EF4754;}
	.st5{fill:#EF4823;}
	.st6{fill:#8A4581;}
	.st7{fill:#BCBCBC;}
	.st8{fill:#F26322;}
	.st9{fill:#F6851F;}
	.st10{fill:#283D5B;}
	.st11{fill:#C56528;}
	.st12{fill:#2B8C5E;}
	.st13{fill:#FCBF95;}
	.st14{fill:#FEBF10;}
	.st15{fill:none;}
	.st16{fill:#CAD7D6;}
	.st17{fill:#CBDB2D;}
	.st18{fill:#373837;}
	.st19{fill:#D03827;}
	.st20{fill:#3AB37C;}
	.st21{fill:#D6E5E5;}
	.st22{fill:#71C598;}
]]>
</style>
<g>
	<g>
		<g>
			<path class="st21" d="M376.211,318.181c-5.388-2.197-4.396-9.331-0.433-11.147c1.16-1.877,2.299-3.776,3.381-5.729
				c12.113-21.855,19.75-47.586,17.812-72.771c-1.87-24.316-11.995-46.385-28.524-64.277c-16.55-17.92-37.854-31.66-61.138-39.045
				c-23.615-7.49-47.436-7.638-71.049,0.061c-0.813,0.266-1.626,0.557-2.438,0.837l-0.035-0.047
				c-2.062,1.069-4.613,0.916-6.488-1.504c-7.605-9.804-17.789-19.226-30.729-20.52c-12.401-1.241-24.512,3.685-34.537,10.729
				c-12.667,8.896-25.183,21.196-29.285,36.603c-1.957,7.356-3.362,17.761-0.387,25.032c2.806,6.857,7.747,12.344,12.214,18.154
				c3.116,4.049,0.095,8.953-3.607,9.817c-4.179,7.598-7.677,15.487-10.341,23.587c-8.159,24.822-8.639,51.721,0.482,76.394
				c8.956,24.228,24.366,44.979,42.68,62.973c0.762,0.747,1.233,1.542,1.479,2.344c28.695,22.435,66.347,22.311,100.094,11.348
				c1.414-3.697,6.496-6.021,9.809-2.118c7.424,8.746,17.057,17.919,29.17,18.7c11.408,0.736,22.279-4.87,31.303-11.37
				c14.457-10.415,29.187-20.46,35.506-37.815c1.839-5.047,1.805-11.113,1.056-16.372
				C381.626,327.984,380.733,320.027,376.211,318.181z M332.182,302.332c0.221,7.088-1.372,14.248-5.312,20.051
				c-1.927,2.838-4.32,5.117-7.018,6.917c-3.641,5.479-8.968,9.397-15.139,12.134c-3.594,2.458-7.514,4.542-11.527,5.461
				c-11.266,2.58-23.183,2.311-34.6,0.93c-9.537-1.153-21.543-3.708-31.532-8.674c-6.215-1.852-12.015-4.75-16.65-9.015
				c-10.114-9.304-14.193-27.861-5.93-39.684c3.701-5.295,10.672-10.296,17.441-8.487c5.545,1.481,8.889,7.099,10.207,12.352
				c0.75,2.99,0.883,6.662,1.062,10.421c2.833,2.88,5.748,5.665,8.941,8.117c8.157,6.266,17.413,8.468,27.338,10.315
				c0.267,0.05,0.54,0.101,0.815,0.153c4.075-0.076,8.142-0.407,12.165-1.026c12.115-1.865,21.621-15.347,21.215-27.514
				c-0.774-0.594-1.395-1.486-1.732-2.729c-1.808-6.651-8.503-9.803-14.5-12.042c-5.456-2.037-11.242-3.808-16.969-4.884
				c-13.291-2.499-26.638-4.77-39.45-9.231c-12.181-4.241-25.132-10.841-30.908-23.06c-2.063-4.364-3.021-9.078-3.094-13.858
				c-1.308-2.842-2.053-5.911-1.897-9.092c0.063-1.306,0.217-2.555,0.434-3.767c-0.234-0.544-0.376-1.147-0.389-1.809
				c-0.014-0.701-0.008-1.396,0.018-2.097c1.085-29.962,39.629-42.092,63.973-44.853c16.174-1.834,46.173-0.901,56.991,14.508
				c2.626,2.176,4.827,4.813,6.229,8.317c2.435,6.079,2.958,14.03-0.8,19.721c-4.232,6.409-11.732,6.957-17.888,2.845
				c-4.652-3.107-7.182-7.308-9.527-11.689c-3.269-2.408-6.366-5.169-9.508-7.771c-0.35-0.138-0.704-0.266-1.056-0.397
				c-12.186,0.41-24.392,1.772-35.613,6.272c-6.757,2.71-13.688,6.479-18.543,12.034c-2.199,2.514-4.485,5.483-5.125,8.861
				c-0.247,1.306-0.415,2.587-0.349,3.921c0.063,1.27,0.934,3.056-0.207,2.122c1.926,1.579,2.277,3.621,1.689,5.413
				c0.613,1.411,1.351,2.775,2.263,4.072c4.648,3.417,10.238,5.922,14.769,7.662c14.167,5.438,29.541,6.625,43.992,11.137
				c14.523,4.535,29.003,11.602,37.723,24.573C328.392,285.218,333.075,294.347,332.182,302.332z"/>
		</g>
	</g>
	<g>
		<g>
			<path class="st1" d="M478.906,159.975c-16.125-46.552-46.66-87.148-91.268-109.607c-50.949-25.65-110.953-28.072-166.416-19.262
				c-49.779,7.906-102.279,25.918-139.578,61.098c-19.578,18.467-34.738,40.916-42.662,66.768
				c-7.961,25.975-10.365,53.114-12.104,80.102c-0.072,1.145-0.426,2.039-0.953,2.711c0.031,0.247,0.051,0.502,0.051,0.772
				c0,52.927-1.062,108.335,30.076,153.938c25.32,37.082,64.48,61.467,107.197,73.711c88,25.225,194.16,9.605,264.924-50.809
				C502.281,356.125,509.09,247.112,478.906,159.975z M398.292,288.337c-3.3,8.055-7.215,15.875-11.691,23.363
				c8.424,9.048,9.007,26.07,6.629,37.02c-4.426,20.382-21.634,32.901-37.408,44.536c-12.045,8.883-26.691,17.518-42.292,16.045
				c-13.157-1.241-23.909-8.589-32.799-17.827c-18.224,6.086-37.421,9.857-56.646,8.55c-23.51-1.598-44.778-10.685-62.256-26.461
				c-1.204-1.088-1.742-2.297-1.794-3.479c-5.604-5.811-10.932-11.896-15.79-18.346c-15.082-20.016-26.898-43.162-30.367-68.23
				c-3.571-25.788,0.957-51.702,12.125-75.154c1.789-3.75,3.741-7.439,5.823-11.077c-4.47-5.663-8.827-11.5-10.934-18.449
				c-2.808-9.243-2.113-20.459,0.351-29.72c4.896-18.385,18.718-33.358,34.123-43.872c12.367-8.44,27.764-15.126,43.079-12.761
				c14.411,2.225,26.03,10.479,35.229,21.357c2.042-0.638,4.091-1.241,6.151-1.792c23.723-6.354,47.894-5.603,71.235,2.064
				c23.227,7.628,44.918,20.663,62.103,38.113c16.75,17.007,29.894,38.638,33.907,62.433
				C411.247,239.401,407.778,265.156,398.292,288.337z"/>
		</g>
	</g>
	<g>
		<g>
			<path class="st1" d="M320.745,297.266c0.114,1.236,0.267,2.47,0.415,3.666c0.026-0.11,0.062-0.217,0.082-0.329
				C321.149,299.472,320.979,298.356,320.745,297.266z"/>
		</g>
	</g>
	<g>
		<g>
			<path d="M492.574,166.911c-14.17-46.857-40.941-88.285-82.014-115.738c-46.359-30.985-105.275-38.447-159.783-34.447
				c-51.699,3.795-104.629,17.898-148.596,45.979C80.58,76.499,61.303,94.602,47.215,116.084
				c-14.859,22.66-22.512,48.775-26.58,75.363c-2.311,15.085-3.439,30.333-4.418,45.553c-0.062,0.949,0.094,1.805,0.398,2.563
				c-0.889,0.938-1.473,2.218-1.473,3.828c0,30.126-0.645,60.399,4.645,90.183c4.822,27.145,15.229,52.928,31.631,75.148
				c29.15,39.498,73.502,63.312,120.389,74.99c88.939,22.154,194.244,3.654,264.5-57.08
				C510.285,362.68,519.465,255.846,492.574,166.911z M428.174,419.397C357.41,479.811,251.25,495.43,163.25,470.206
				c-42.717-12.244-81.877-36.629-107.197-73.711c-31.139-45.604-30.076-101.012-30.076-153.938c0-0.271-0.02-0.525-0.051-0.772
				c0.527-0.672,0.881-1.566,0.953-2.711c1.738-26.987,4.143-54.127,12.104-80.102c7.924-25.852,23.084-48.301,42.662-66.768
				c37.299-35.18,89.799-53.191,139.578-61.098c55.463-8.811,115.467-6.389,166.416,19.262
				c44.607,22.459,75.143,63.056,91.268,109.607C509.09,247.112,502.281,356.125,428.174,419.397z"/>
		</g>
	</g>
	<g>
		<g>
			<path d="M407.071,214.648c-4.014-23.794-17.157-45.426-33.907-62.433c-17.185-17.451-38.876-30.485-62.103-38.113
				c-23.342-7.667-47.513-8.417-71.235-2.064c-2.061,0.551-4.109,1.154-6.151,1.792c-9.199-10.878-20.818-19.132-35.229-21.357
				c-15.315-2.365-30.712,4.321-43.079,12.761c-15.405,10.514-29.227,25.486-34.123,43.872c-2.464,9.261-3.158,20.477-0.351,29.72
				c2.106,6.949,6.464,12.787,10.934,18.449c-2.082,3.638-4.034,7.327-5.823,11.077c-11.168,23.452-15.696,49.367-12.125,75.154
				c3.469,25.069,15.285,48.214,30.367,68.23c4.858,6.45,10.186,12.535,15.79,18.346c0.052,1.181,0.59,2.391,1.794,3.479
				c17.478,15.776,38.746,24.863,62.256,26.461c19.225,1.308,38.422-2.464,56.646-8.55c8.89,9.237,19.642,16.585,32.799,17.827
				c15.601,1.472,30.247-7.162,42.292-16.045c15.774-11.635,32.982-24.153,37.408-44.536c2.378-10.949,1.795-27.971-6.629-37.02
				c4.477-7.488,8.392-15.309,11.691-23.363C407.778,265.156,411.247,239.401,407.071,214.648z M379.159,301.305
				c-1.082,1.953-2.221,3.852-3.381,5.729c-3.964,1.817-4.955,8.95,0.433,11.147c4.522,1.846,5.415,9.803,5.994,13.863
				c0.749,5.259,0.783,11.325-1.056,16.372c-6.319,17.355-21.049,27.401-35.506,37.815c-9.023,6.5-19.895,12.106-31.303,11.37
				c-12.113-0.781-21.746-9.955-29.17-18.7c-3.312-3.903-8.395-1.58-9.809,2.118c-33.747,10.963-71.398,11.086-100.094-11.348
				c-0.245-0.802-0.717-1.598-1.479-2.344c-18.313-17.993-33.724-38.745-42.68-62.973c-9.121-24.673-8.642-51.572-0.482-76.394
				c2.664-8.1,6.162-15.989,10.341-23.587c3.702-0.865,6.724-5.768,3.607-9.817c-4.467-5.81-9.408-11.296-12.214-18.154
				c-2.976-7.271-1.57-17.676,0.387-25.032c4.103-15.407,16.618-27.707,29.285-36.603c10.025-7.043,22.136-11.969,34.537-10.729
				c12.939,1.294,23.123,10.716,30.729,20.52c1.875,2.42,4.426,2.573,6.488,1.504l0.035,0.047c0.812-0.281,1.624-0.572,2.438-0.837
				c23.613-7.699,47.434-7.551,71.049-0.061c23.284,7.385,44.588,21.125,61.138,39.045c16.529,17.893,26.654,39.961,28.524,64.277
				C398.909,253.719,391.272,279.449,379.159,301.305z"/>
		</g>
	</g>
	<g>
		<g>
			<path class="st1" d="M324.185,278.959c-8.72-12.971-23.199-20.038-37.723-24.573c-14.451-4.512-29.825-5.699-43.992-11.137
				c-4.53-1.739-10.12-4.244-14.769-7.662c-0.912-1.296-1.649-2.661-2.263-4.072c0.588-1.792,0.236-3.834-1.689-5.413
				c1.141,0.935,0.271-0.852,0.207-2.122c-0.066-1.333,0.102-2.615,0.349-3.921c0.64-3.377,2.926-6.347,5.125-8.861
				c4.855-5.555,11.786-9.324,18.543-12.034c11.222-4.5,23.428-5.862,35.613-6.272c0.352,0.131,0.706,0.259,1.056,0.397
				c3.142,2.602,6.239,5.363,9.508,7.771c2.346,4.381,4.875,8.582,9.527,11.689c6.155,4.112,13.655,3.564,17.888-2.845
				c3.758-5.691,3.234-13.642,0.8-19.721c-1.402-3.503-3.604-6.141-6.229-8.317c-10.818-15.409-40.817-16.342-56.991-14.508
				c-24.344,2.761-62.888,14.891-63.973,44.853c-0.025,0.701-0.031,1.396-0.018,2.097c0.013,0.662,0.154,1.265,0.389,1.809
				c-0.217,1.212-0.37,2.461-0.434,3.767c-0.155,3.181,0.59,6.25,1.897,9.092c0.073,4.781,1.03,9.495,3.094,13.858
				c5.776,12.219,18.728,18.819,30.908,23.06c12.812,4.461,26.159,6.732,39.45,9.231c5.727,1.077,11.513,2.848,16.969,4.884
				c5.997,2.239,12.692,5.391,14.5,12.042c0.338,1.243,0.958,2.135,1.732,2.729c0.406,12.167-9.1,25.648-21.215,27.514
				c-4.023,0.619-8.09,0.95-12.165,1.026c-0.275-0.052-0.549-0.104-0.815-0.153c-9.925-1.847-19.181-4.049-27.338-10.315
				c-3.193-2.452-6.108-5.237-8.941-8.117c-0.18-3.759-0.312-7.431-1.062-10.421c-1.318-5.253-4.662-10.871-10.207-12.352
				c-6.77-1.809-13.74,3.192-17.441,8.487c-8.264,11.822-4.185,30.38,5.93,39.684c4.636,4.264,10.436,7.163,16.65,9.015
				c9.989,4.966,21.995,7.521,31.532,8.674c11.417,1.38,23.334,1.65,34.6-0.93c4.014-0.919,7.934-3.002,11.527-5.461
				c6.171-2.737,11.498-6.654,15.139-12.134c2.697-1.8,5.091-4.079,7.018-6.917c3.94-5.803,5.533-12.963,5.312-20.051
				C333.075,294.347,328.392,285.218,324.185,278.959z M321.16,300.932c-0.148-1.196-0.301-2.43-0.415-3.666
				c0.234,1.09,0.404,2.206,0.497,3.337C321.222,300.715,321.187,300.822,321.16,300.932z"/>
		</g>
	</g>
	<g>
		<g>
			<path d="M320.234,265.272c-13.946-10.901-32.031-17.427-49.119-21.425c-7.807-1.828-15.71-3.312-23.052-6.651
				c-7.242-3.293-10.633-8.277-12.814-15.129c0.015-0.191,0.023-0.386,0.021-0.588c-0.107-8.734,14.459-13.521,20.783-16.61
				c5.066-2.474,10.889-4.764,16.637-4.38c6.302,0.421,11.048,4.248,15.651,8.174c7.472,6.374,16.188,13.942,26.483,14.428
				c11.476,0.541,19.454-11.131,19.648-21.716c0.498-27.111-32.68-41.064-55.117-42.875c-13.771-1.111-27.473,1.336-40.588,5.436
				c-11.567,3.616-24.041,8.313-33.131,16.584c-15.036,13.683-17.823,34.876-10.601,53.299c8.542,21.788,31.126,39.23,53.893,43.467
				c11.445,2.13,23.616,0.305,34.458,5.346c6.34,2.948,13.763,11.655,12.289,18.812c-0.889,4.319-7.197,7.108-11.801,8.521
				c-6.803,2.087-14.371,2.324-21.398,1.502c-5.965-0.698-12.557-2.216-17.061-6.364c-6.782-6.242-10.81-14.931-17.907-21
				c-7.262-6.209-17.613-7.586-25.297-1.266c-7.101,5.841-8.098,15.571-6.78,24.116c1.262,8.187,4.473,16.916,9.793,23.358
				c8.155,9.877,20.584,14.646,32.664,17.636c25.712,6.365,55.574,8.635,77.79-8.203c11.356-8.608,20.175-21.422,22.285-35.672
				C340.301,288.303,332.339,274.733,320.234,265.272z M326.781,304.321c-1.818,10.056-8.516,19.093-16.237,25.499
				c-10.222,8.478-22.5,11.603-35.607,11.851c-14.04,0.266-28.969-2.37-42.35-6.592c-10.078-3.179-18.821-9.236-23.117-19.036
				c-2.695-6.149-6.099-16.75-1.875-23c5.828-8.623,14.804,0.802,18.881,5.891c5.204,6.494,9.43,13.72,16.738,18.084
				c6.133,3.662,13.776,5.079,20.803,5.593c13.532,0.988,32.116-0.981,40.174-13.562c3.818-5.963,3.165-13.315,0.186-19.47
				c-5.078-10.492-13.771-17.012-24.938-19.903c-11.873-3.074-24.512-1.113-36.195-5.146c-11.639-4.018-22.867-12.291-30.511-21.907
				c-11.743-14.775-15.308-36.409-2.216-51.479c7.89-9.081,20.828-13.218,31.891-16.825c13.312-4.34,27.482-6.317,41.401-4.278
				c12.745,1.867,26.563,7.619,34.669,17.988c3.447,4.41,5.704,9.809,4.759,15.448c-0.865,5.152-4.622,9.425-9.94,8.385
				c-7.79-1.523-14.738-8.895-20.52-13.886c-8.091-6.986-18.359-9.937-28.823-7.583c-8.862,1.993-17.71,6.581-25.541,11.161
				c-6.375,3.729-11.899,9.035-13.581,16.057c-0.93,1.25-1.38,2.892-0.904,4.777c1.436,5.708,3.14,11.416,7.201,15.857
				c4.071,4.455,9.04,7.582,14.58,9.918c10.902,4.596,22.878,5.811,34.079,9.458C300.549,264.378,331.66,277.34,326.781,304.321z"/>
		</g>
	</g>
</g>
</svg>
